<?xml version="1.0" encoding="utf-8"?><svg width="auto" height="4970" style="overflow:visible " version="1.1" xmlns="http://www.w3.org/2000/svg"><rect x="20" y="20" width="200" height="40" style="fill:white;stroke:black;stroke-width:1" /><text x="30" y="30" font-size="10" style="fill:blue">html</text><text x="30" y="40" font-size="8" style="fill:black">lang: es</text><rect x="240" y="20" width="200" height="40" style="fill:white;stroke:black;stroke-width:1" /><text x="250" y="30" font-size="10" style="fill:blue">head</text><path d="M220 40 C240 40 220 40 240 40" style="fill:transparent;stroke:black" /><rect x="460" y="20" width="200" height="40" style="fill:white;stroke:black;stroke-width:1" /><text x="470" y="30" font-size="10" style="fill:blue">meta</text><path d="M440 40 C460 40 440 40 460 40" style="fill:transparent;stroke:black" /><text x="470" y="40" font-size="8" style="fill:black">charset: UTF-8</text><rect x="460" y="70" width="200" height="40" style="fill:white;stroke:black;stroke-width:1" /><text x="470" y="80" font-size="10" style="fill:blue">title</text><path d="M440 40 C460 40 440 90 460 90" style="fill:transparent;stroke:black" /><rect x="526" y="70" width="137" height="40" style="fill:green;stroke:black;stroke-width:1" /><text x="536" y="80" font-size="8" style="fill:white">Practica 1</text><rect x="460" y="120" width="200" height="40" style="fill:white;stroke:black;stroke-width:1" /><text x="470" y="130" font-size="10" style="fill:blue">link</text><path d="M440 40 C460 40 440 140 460 140" style="fill:transparent;stroke:black" /><text x="470" y="140" font-size="8" style="fill:black">rel: stylesheet</text><text x="470" y="150" font-size="8" style="fill:black">type: text/css</text><text x="470" y="160" font-size="8" style="fill:black">href: estilo1.css</text><rect x="460" y="170" width="200" height="40" style="fill:white;stroke:black;stroke-width:1" /><text x="470" y="180" font-size="10" style="fill:blue">meta</text><path d="M440 40 C460 40 440 190 460 190" style="fill:transparent;stroke:black" /><text x="470" y="190" font-size="8" style="fill:black">name: descripcion</text><text x="470" y="200" font-size="8" style="fill:black">content: Es un resumen que trata sobre la istoria de la famosa saga de Juego de Tronos.</text><rect x="460" y="220" width="200" height="40" style="fill:white;stroke:black;stroke-width:1" /><text x="470" y="230" font-size="10" style="fill:blue">meta</text><path d="M440 40 C460 40 440 240 460 240" style="fill:transparent;stroke:black" /><text x="470" y="240" font-size="8" style="fill:black">name: keywords</text><text x="470" y="250" font-size="8" style="fill:black">content: cancion,hielo,fuego,juego,tronos,guerra,invierno</text><rect x="460" y="270" width="200" height="40" style="fill:white;stroke:black;stroke-width:1" /><text x="470" y="280" font-size="10" style="fill:blue">meta</text><path d="M440 40 C460 40 440 290 460 290" style="fill:transparent;stroke:black" /><text x="470" y="290" font-size="8" style="fill:black">name: autor</text><text x="470" y="300" font-size="8" style="fill:black">content: Lucía de la Granda Prieto</text><rect x="240" y="370" width="200" height="40" style="fill:white;stroke:black;stroke-width:1" /><text x="250" y="380" font-size="10" style="fill:blue">body</text><path d="M220 40 C240 40 220 390 240 390" style="fill:transparent;stroke:black" /><rect x="460" y="370" width="200" height="40" style="fill:white;stroke:black;stroke-width:1" /><text x="470" y="380" font-size="10" style="fill:blue">section</text><path d="M440 390 C460 390 440 390 460 390" style="fill:transparent;stroke:black" /><rect x="680" y="370" width="200" height="40" style="fill:white;stroke:black;stroke-width:1" /><text x="690" y="380" font-size="10" style="fill:blue">h1</text><path d="M660 390 C680 390 660 390 680 390" style="fill:transparent;stroke:black" /><rect x="746" y="370" width="137" height="40" style="fill:green;stroke:black;stroke-width:1" /><text x="756" y="380" font-size="8" style="fill:white">Adaptaciones</text><rect x="680" y="420" width="200" height="40" style="fill:white;stroke:black;stroke-width:1" /><text x="690" y="430" font-size="10" style="fill:blue">nav</text><path d="M660 390 C680 390 660 440 680 440" style="fill:transparent;stroke:black" /><rect x="900" y="420" width="200" height="40" style="fill:white;stroke:black;stroke-width:1" /><text x="910" y="430" font-size="10" style="fill:blue">a</text><path d="M880 440 C900 440 880 440 900 440" style="fill:transparent;stroke:black" /><text x="910" y="440" font-size="8" style="fill:black">href: SEW.html</text><text x="910" y="450" font-size="8" style="fill:black">tabindex: 1</text><text x="910" y="460" font-size="8" style="fill:black">accesskey: J</text><rect x="966" y="420" width="137" height="40" style="fill:green;stroke:black;stroke-width:1" /><text x="976" y="430" font-size="8" style="fill:white">Ejercicios Prácticas </text><rect x="900" y="470" width="200" height="40" style="fill:white;stroke:black;stroke-width:1" /><text x="910" y="480" font-size="10" style="fill:blue">a</text><path d="M880 440 C900 440 880 490 900 490" style="fill:transparent;stroke:black" /><text x="910" y="490" font-size="8" style="fill:black">href: textoEditado.html</text><text x="910" y="500" font-size="8" style="fill:black">tabindex: 2</text><text x="910" y="510" font-size="8" style="fill:black">accesskey: I</text><rect x="966" y="470" width="137" height="40" style="fill:green;stroke:black;stroke-width:1" /><text x="976" y="480" font-size="8" style="fill:white">Inicio</text><rect x="900" y="520" width="200" height="40" style="fill:white;stroke:black;stroke-width:1" /><text x="910" y="530" font-size="10" style="fill:blue">a</text><path d="M880 440 C900 440 880 540 900 540" style="fill:transparent;stroke:black" /><text x="910" y="540" font-size="8" style="fill:black">href: LosLibros.html</text><text x="910" y="550" font-size="8" style="fill:black">tabindex: 3</text><text x="910" y="560" font-size="8" style="fill:black">accesskey: B</text><rect x="966" y="520" width="137" height="40" style="fill:green;stroke:black;stroke-width:1" /><text x="976" y="530" font-size="8" style="fill:white">Los libros</text><rect x="900" y="570" width="200" height="40" style="fill:white;stroke:black;stroke-width:1" /><text x="910" y="580" font-size="10" style="fill:blue">a</text><path d="M880 440 C900 440 880 590 900 590" style="fill:transparent;stroke:black" /><text x="910" y="590" font-size="8" style="fill:black">href: ResumenHistoria.html</text><text x="910" y="600" font-size="8" style="fill:black">tabindex: 4</text><text x="910" y="610" font-size="8" style="fill:black">accesskey: R</text><rect x="966" y="570" width="137" height="40" style="fill:green;stroke:black;stroke-width:1" /><text x="976" y="580" font-size="8" style="fill:white">Resumen historia</text><rect x="900" y="620" width="200" height="40" style="fill:white;stroke:black;stroke-width:1" /><text x="910" y="630" font-size="10" style="fill:blue">a</text><path d="M880 440 C900 440 880 640 900 640" style="fill:transparent;stroke:black" /><text x="910" y="640" font-size="8" style="fill:black">href: Personajes.html</text><text x="910" y="650" font-size="8" style="fill:black">tabindex: 5</text><text x="910" y="660" font-size="8" style="fill:black">accesskey: P</text><rect x="966" y="620" width="137" height="40" style="fill:green;stroke:black;stroke-width:1" /><text x="976" y="630" font-size="8" style="fill:white">Personajes</text><rect x="900" y="670" width="200" height="40" style="fill:white;stroke:black;stroke-width:1" /><text x="910" y="680" font-size="10" style="fill:blue">a</text><path d="M880 440 C900 440 880 690 900 690" style="fill:transparent;stroke:black" /><text x="910" y="690" font-size="8" style="fill:black">href: Fuentes.html</text><text x="910" y="700" font-size="8" style="fill:black">tabindex: 6</text><text x="910" y="710" font-size="8" style="fill:black">accesskey: L</text><rect x="966" y="670" width="137" height="40" style="fill:green;stroke:black;stroke-width:1" /><text x="976" y="680" font-size="8" style="fill:white">Fuentes literarias e historicas</text><rect x="900" y="720" width="200" height="40" style="fill:white;stroke:black;stroke-width:1" /><text x="910" y="730" font-size="10" style="fill:blue">a</text><path d="M880 440 C900 440 880 740 900 740" style="fill:transparent;stroke:black" /><text x="910" y="740" font-size="8" style="fill:black">href: Adaptaciones.html</text><text x="910" y="750" font-size="8" style="fill:black">tabindex: 7</text><text x="910" y="760" font-size="8" style="fill:black">accesskey: A</text><rect x="966" y="720" width="137" height="40" style="fill:green;stroke:black;stroke-width:1" /><text x="976" y="730" font-size="8" style="fill:white">Adaptaciones</text><rect x="900" y="770" width="200" height="40" style="fill:white;stroke:black;stroke-width:1" /><text x="910" y="780" font-size="10" style="fill:blue">a</text><path d="M880 440 C900 440 880 790 900 790" style="fill:transparent;stroke:black" /><text x="910" y="790" font-size="8" style="fill:black">href: MasInformacion.html</text><text x="910" y="800" font-size="8" style="fill:black">tabindex: 8</text><text x="910" y="810" font-size="8" style="fill:black">accesskey: M</text><rect x="966" y="770" width="137" height="40" style="fill:green;stroke:black;stroke-width:1" /><text x="976" y="780" font-size="8" style="fill:white">Más información</text><rect x="680" y="870" width="200" height="40" style="fill:white;stroke:black;stroke-width:1" /><text x="690" y="880" font-size="10" style="fill:blue">h2</text><path d="M660 390 C680 390 660 890 680 890" style="fill:transparent;stroke:black" /><rect x="746" y="870" width="137" height="40" style="fill:green;stroke:black;stroke-width:1" /><text x="756" y="880" font-size="8" style="fill:white">Televisión</text><rect x="680" y="920" width="200" height="40" style="fill:white;stroke:black;stroke-width:1" /><text x="690" y="930" font-size="10" style="fill:blue">p</text><path d="M660 390 C680 390 660 940 680 940" style="fill:transparent;stroke:black" /><rect x="746" y="920" width="137" height="40" style="fill:green;stroke:black;stroke-width:1" /><text x="756" y="930" font-size="8" style="fill:white">La saga Canción de hielo y fuego está siendo adaptada a la pequeña pantalla por parte de los encargados de la serie Juego de Tronos, del canal estadounidense HBO.</text><rect x="460" y="1020" width="200" height="40" style="fill:white;stroke:black;stroke-width:1" /><text x="470" y="1030" font-size="10" style="fill:blue">section</text><path d="M440 390 C460 390 440 1040 460 1040" style="fill:transparent;stroke:black" /><rect x="680" y="1020" width="200" height="40" style="fill:white;stroke:black;stroke-width:1" /><text x="690" y="1030" font-size="10" style="fill:blue">h2</text><path d="M660 1040 C680 1040 660 1040 680 1040" style="fill:transparent;stroke:black" /><rect x="746" y="1020" width="137" height="40" style="fill:green;stroke:black;stroke-width:1" /><text x="756" y="1030" font-size="8" style="fill:white">Juegos de rol</text><rect x="680" y="1070" width="200" height="40" style="fill:white;stroke:black;stroke-width:1" /><text x="690" y="1080" font-size="10" style="fill:blue">p</text><path d="M660 1040 C680 1040 660 1090 680 1090" style="fill:transparent;stroke:black" /><rect x="746" y="1070" width="137" height="40" style="fill:green;stroke:black;stroke-width:1" /><text x="756" y="1080" font-size="8" style="fill:white">Dos juegos de rol ambientados en el universo de ficción de Canción de hielo y fuego han sido publicados hasta la fecha:</text><rect x="680" y="1120" width="200" height="40" style="fill:white;stroke:black;stroke-width:1" /><text x="690" y="1130" font-size="10" style="fill:blue">ul</text><path d="M660 1040 C680 1040 660 1140 680 1140" style="fill:transparent;stroke:black" /><rect x="900" y="1120" width="200" height="40" style="fill:white;stroke:black;stroke-width:1" /><text x="910" y="1130" font-size="10" style="fill:blue">li</text><path d="M880 1140 C900 1140 880 1140 900 1140" style="fill:transparent;stroke:black" /><rect x="1120" y="1120" width="200" height="40" style="fill:white;stroke:black;stroke-width:1" /><text x="1130" y="1130" font-size="10" style="fill:blue">strong</text><path d="M1100 1140 C1120 1140 1100 1140 1120 1140" style="fill:transparent;stroke:black" /><rect x="1186" y="1120" width="137" height="40" style="fill:green;stroke:black;stroke-width:1" /><text x="1196" y="1130" font-size="8" style="fill:white">A Game of Thrones</text><rect x="966" y="1170" width="137" height="40" style="fill:green;stroke:black;stroke-width:1" /><text x="976" y="1180" font-size="8" style="fill:white">, un escenario de campaña que usa el sistema d20 como sistema de juego y que fue publicado en inglés en 2005 por la editorial canadiense Guardians of Order. La editorial española Devir Iberia lo tradujo y publicó en 2006 bajo el título Juego de tronos.</text><rect x="900" y="1220" width="200" height="40" style="fill:white;stroke:black;stroke-width:1" /><text x="910" y="1230" font-size="10" style="fill:blue">li</text><path d="M880 1140 C900 1140 880 1240 900 1240" style="fill:transparent;stroke:black" /><rect x="1120" y="1220" width="200" height="40" style="fill:white;stroke:black;stroke-width:1" /><text x="1130" y="1230" font-size="10" style="fill:blue">strong</text><path d="M1100 1240 C1120 1240 1100 1240 1120 1240" style="fill:transparent;stroke:black" /><rect x="1186" y="1220" width="137" height="40" style="fill:green;stroke:black;stroke-width:1" /><text x="1196" y="1230" font-size="8" style="fill:white">A Song of Ice and Fire</text><rect x="966" y="1270" width="137" height="40" style="fill:green;stroke:black;stroke-width:1" /><text x="976" y="1280" font-size="8" style="fill:white">, publicado por primera vez en marzo de 2009 por la editorial estadounidense Green Ronin Publishing. Fue traducido y publicado en castellano el 5 de febrero de 2010 por la editorial sevillana Edge Entertainment bajo el título Canción de hielo y fuego, el juego de rol de Juego de tronos.</text><rect x="460" y="1420" width="200" height="40" style="fill:white;stroke:black;stroke-width:1" /><text x="470" y="1430" font-size="10" style="fill:blue">section</text><path d="M440 390 C460 390 440 1440 460 1440" style="fill:transparent;stroke:black" /><rect x="680" y="1420" width="200" height="40" style="fill:white;stroke:black;stroke-width:1" /><text x="690" y="1430" font-size="10" style="fill:blue">h2</text><path d="M660 1440 C680 1440 660 1440 680 1440" style="fill:transparent;stroke:black" /><rect x="746" y="1420" width="137" height="40" style="fill:green;stroke:black;stroke-width:1" /><text x="756" y="1430" font-size="8" style="fill:white">Juegos de tablero</text><rect x="680" y="1470" width="200" height="40" style="fill:white;stroke:black;stroke-width:1" /><text x="690" y="1480" font-size="10" style="fill:blue">p</text><path d="M660 1440 C680 1440 660 1490 680 1490" style="fill:transparent;stroke:black" /><rect x="746" y="1470" width="137" height="40" style="fill:green;stroke:black;stroke-width:1" /><text x="756" y="1480" font-size="8" style="fill:white">Además de su traducción del juego de rol de Guardians of Order, Devir Iberia comercializó un juego de tablero, también basado en Canción de hielo y fuego.</text><rect x="680" y="1520" width="200" height="40" style="fill:white;stroke:black;stroke-width:1" /><text x="690" y="1530" font-size="10" style="fill:blue">p</text><path d="M660 1440 C680 1440 660 1540 680 1540" style="fill:transparent;stroke:black" /><rect x="746" y="1520" width="137" height="40" style="fill:green;stroke:black;stroke-width:1" /><text x="756" y="1530" font-size="8" style="fill:white">Edge Entertaiment también ha publicado en español un juego de cartas llamado Juego de tronos LCG y un juego de tablero llamado Batallas de Poniente.</text><rect x="460" y="1620" width="200" height="40" style="fill:white;stroke:black;stroke-width:1" /><text x="470" y="1630" font-size="10" style="fill:blue">section</text><path d="M440 390 C460 390 440 1640 460 1640" style="fill:transparent;stroke:black" /><rect x="680" y="1620" width="200" height="40" style="fill:white;stroke:black;stroke-width:1" /><text x="690" y="1630" font-size="10" style="fill:blue">h2</text><path d="M660 1640 C680 1640 660 1640 680 1640" style="fill:transparent;stroke:black" /><rect x="746" y="1620" width="137" height="40" style="fill:green;stroke:black;stroke-width:1" /><text x="756" y="1630" font-size="8" style="fill:white">Videojuegos</text><rect x="680" y="1670" width="200" height="40" style="fill:white;stroke:black;stroke-width:1" /><text x="690" y="1680" font-size="10" style="fill:blue">table</text><path d="M660 1640 C680 1640 660 1690 680 1690" style="fill:transparent;stroke:black" /><rect x="900" y="1670" width="200" height="40" style="fill:white;stroke:black;stroke-width:1" /><text x="910" y="1680" font-size="10" style="fill:blue">tbody</text><path d="M880 1690 C900 1690 880 1690 900 1690" style="fill:transparent;stroke:black" /><rect x="1120" y="1670" width="200" height="40" style="fill:white;stroke:black;stroke-width:1" /><text x="1130" y="1680" font-size="10" style="fill:blue">tr</text><path d="M1100 1690 C1120 1690 1100 1690 1120 1690" style="fill:transparent;stroke:black" /><rect x="1340" y="1670" width="200" height="40" style="fill:white;stroke:black;stroke-width:1" /><text x="1350" y="1680" font-size="10" style="fill:blue">th</text><path d="M1320 1690 C1340 1690 1320 1690 1340 1690" style="fill:transparent;stroke:black" /><rect x="1406" y="1670" width="137" height="40" style="fill:green;stroke:black;stroke-width:1" /><text x="1416" y="1680" font-size="8" style="fill:white">Año</text><rect x="1340" y="1720" width="200" height="40" style="fill:white;stroke:black;stroke-width:1" /><text x="1350" y="1730" font-size="10" style="fill:blue">th</text><path d="M1320 1690 C1340 1690 1320 1740 1340 1740" style="fill:transparent;stroke:black" /><rect x="1406" y="1720" width="137" height="40" style="fill:green;stroke:black;stroke-width:1" /><text x="1416" y="1730" font-size="8" style="fill:white">Título</text><rect x="1340" y="1770" width="200" height="40" style="fill:white;stroke:black;stroke-width:1" /><text x="1350" y="1780" font-size="10" style="fill:blue">th</text><path d="M1320 1690 C1340 1690 1320 1790 1340 1790" style="fill:transparent;stroke:black" /><rect x="1406" y="1770" width="137" height="40" style="fill:green;stroke:black;stroke-width:1" /><text x="1416" y="1780" font-size="8" style="fill:white">Plataformas</text><rect x="1120" y="1870" width="200" height="40" style="fill:white;stroke:black;stroke-width:1" /><text x="1130" y="1880" font-size="10" style="fill:blue">tr</text><path d="M1100 1690 C1120 1690 1100 1890 1120 1890" style="fill:transparent;stroke:black" /><rect x="1340" y="1870" width="200" height="40" style="fill:white;stroke:black;stroke-width:1" /><text x="1350" y="1880" font-size="10" style="fill:blue">td</text><path d="M1320 1890 C1340 1890 1320 1890 1340 1890" style="fill:transparent;stroke:black" /><rect x="1406" y="1870" width="137" height="40" style="fill:green;stroke:black;stroke-width:1" /><text x="1416" y="1880" font-size="8" style="fill:white">2017 </text><rect x="1340" y="1920" width="200" height="40" style="fill:white;stroke:black;stroke-width:1" /><text x="1350" y="1930" font-size="10" style="fill:blue">td</text><path d="M1320 1890 C1340 1890 1320 1940 1340 1940" style="fill:transparent;stroke:black" /><rect x="1406" y="1920" width="137" height="40" style="fill:green;stroke:black;stroke-width:1" /><text x="1416" y="1930" font-size="8" style="fill:white">Game of Thrones Seven Kingdoms</text><rect x="1340" y="1970" width="200" height="40" style="fill:white;stroke:black;stroke-width:1" /><text x="1350" y="1980" font-size="10" style="fill:blue">td</text><path d="M1320 1890 C1340 1890 1320 1990 1340 1990" style="fill:transparent;stroke:black" /><rect x="1406" y="1970" width="137" height="40" style="fill:green;stroke:black;stroke-width:1" /><text x="1416" y="1980" font-size="8" style="fill:white">PC</text><rect x="1120" y="2070" width="200" height="40" style="fill:white;stroke:black;stroke-width:1" /><text x="1130" y="2080" font-size="10" style="fill:blue">tr</text><path d="M1100 1690 C1120 1690 1100 2090 1120 2090" style="fill:transparent;stroke:black" /><rect x="1340" y="2070" width="200" height="40" style="fill:white;stroke:black;stroke-width:1" /><text x="1350" y="2080" font-size="10" style="fill:blue">td</text><path d="M1320 2090 C1340 2090 1320 2090 1340 2090" style="fill:transparent;stroke:black" /><rect x="1406" y="2070" width="137" height="40" style="fill:green;stroke:black;stroke-width:1" /><text x="1416" y="2080" font-size="8" style="fill:white">2017 </text><rect x="1340" y="2120" width="200" height="40" style="fill:white;stroke:black;stroke-width:1" /><text x="1350" y="2130" font-size="10" style="fill:blue">td</text><path d="M1320 2090 C1340 2090 1320 2140 1340 2140" style="fill:transparent;stroke:black" /><rect x="1406" y="2120" width="137" height="40" style="fill:green;stroke:black;stroke-width:1" /><text x="1416" y="2130" font-size="8" style="fill:white">Game of Thrones: A Telltale Game Series Season 2 </text><rect x="1340" y="2170" width="200" height="40" style="fill:white;stroke:black;stroke-width:1" /><text x="1350" y="2180" font-size="10" style="fill:blue">td</text><path d="M1320 2090 C1340 2090 1320 2190 1340 2190" style="fill:transparent;stroke:black" /><rect x="1406" y="2170" width="137" height="40" style="fill:green;stroke:black;stroke-width:1" /><text x="1416" y="2180" font-size="8" style="fill:white">PC XBOne PS4 PS3 X360 Android iPhone</text><rect x="1120" y="2270" width="200" height="40" style="fill:white;stroke:black;stroke-width:1" /><text x="1130" y="2280" font-size="10" style="fill:blue">tr</text><path d="M1100 1690 C1120 1690 1100 2290 1120 2290" style="fill:transparent;stroke:black" /><rect x="1340" y="2270" width="200" height="40" style="fill:white;stroke:black;stroke-width:1" /><text x="1350" y="2280" font-size="10" style="fill:blue">td</text><path d="M1320 2290 C1340 2290 1320 2290 1340 2290" style="fill:transparent;stroke:black" /><rect x="1406" y="2270" width="137" height="40" style="fill:green;stroke:black;stroke-width:1" /><text x="1416" y="2280" font-size="8" style="fill:white">2015 </text><rect x="1340" y="2320" width="200" height="40" style="fill:white;stroke:black;stroke-width:1" /><text x="1350" y="2330" font-size="10" style="fill:blue">td</text><path d="M1320 2290 C1340 2290 1320 2340 1340 2340" style="fill:transparent;stroke:black" /><rect x="1406" y="2320" width="137" height="40" style="fill:green;stroke:black;stroke-width:1" /><text x="1416" y="2330" font-size="8" style="fill:white">Game of Thrones: Conquest </text><rect x="1340" y="2370" width="200" height="40" style="fill:white;stroke:black;stroke-width:1" /><text x="1350" y="2380" font-size="10" style="fill:blue">td</text><path d="M1320 2290 C1340 2290 1320 2390 1340 2390" style="fill:transparent;stroke:black" /><rect x="1406" y="2370" width="137" height="40" style="fill:green;stroke:black;stroke-width:1" /><text x="1416" y="2380" font-size="8" style="fill:white">iPhone Android</text><rect x="1120" y="2470" width="200" height="40" style="fill:white;stroke:black;stroke-width:1" /><text x="1130" y="2480" font-size="10" style="fill:blue">tr</text><path d="M1100 1690 C1120 1690 1100 2490 1120 2490" style="fill:transparent;stroke:black" /><rect x="1340" y="2470" width="200" height="40" style="fill:white;stroke:black;stroke-width:1" /><text x="1350" y="2480" font-size="10" style="fill:blue">td</text><path d="M1320 2490 C1340 2490 1320 2490 1340 2490" style="fill:transparent;stroke:black" /><rect x="1406" y="2470" width="137" height="40" style="fill:green;stroke:black;stroke-width:1" /><text x="1416" y="2480" font-size="8" style="fill:white">2015 </text><rect x="1340" y="2520" width="200" height="40" style="fill:white;stroke:black;stroke-width:1" /><text x="1350" y="2530" font-size="10" style="fill:blue">td</text><path d="M1320 2490 C1340 2490 1320 2540 1340 2540" style="fill:transparent;stroke:black" /><rect x="1406" y="2520" width="137" height="40" style="fill:green;stroke:black;stroke-width:1" /><text x="1416" y="2530" font-size="8" style="fill:white">Game of Thrones Season 1 </text><rect x="1340" y="2570" width="200" height="40" style="fill:white;stroke:black;stroke-width:1" /><text x="1350" y="2580" font-size="10" style="fill:blue">td</text><path d="M1320 2490 C1340 2490 1320 2590 1340 2590" style="fill:transparent;stroke:black" /><rect x="1406" y="2570" width="137" height="40" style="fill:green;stroke:black;stroke-width:1" /><text x="1416" y="2580" font-size="8" style="fill:white">PS3 PS4 X360 XBOne PC</text><rect x="1120" y="2670" width="200" height="40" style="fill:white;stroke:black;stroke-width:1" /><text x="1130" y="2680" font-size="10" style="fill:blue">tr</text><path d="M1100 1690 C1120 1690 1100 2690 1120 2690" style="fill:transparent;stroke:black" /><rect x="1340" y="2670" width="200" height="40" style="fill:white;stroke:black;stroke-width:1" /><text x="1350" y="2680" font-size="10" style="fill:blue">td</text><path d="M1320 2690 C1340 2690 1320 2690 1340 2690" style="fill:transparent;stroke:black" /><rect x="1406" y="2670" width="137" height="40" style="fill:green;stroke:black;stroke-width:1" /><text x="1416" y="2680" font-size="8" style="fill:white">2015 </text><rect x="1340" y="2720" width="200" height="40" style="fill:white;stroke:black;stroke-width:1" /><text x="1350" y="2730" font-size="10" style="fill:blue">td</text><path d="M1320 2690 C1340 2690 1320 2740 1340 2740" style="fill:transparent;stroke:black" /><rect x="1406" y="2720" width="137" height="40" style="fill:green;stroke:black;stroke-width:1" /><text x="1416" y="2730" font-size="8" style="fill:white"> Game of Thrones: A Telltale Games Series</text><rect x="1340" y="2770" width="200" height="40" style="fill:white;stroke:black;stroke-width:1" /><text x="1350" y="2780" font-size="10" style="fill:blue">td</text><path d="M1320 2690 C1340 2690 1320 2790 1340 2790" style="fill:transparent;stroke:black" /><rect x="1406" y="2770" width="137" height="40" style="fill:green;stroke:black;stroke-width:1" /><text x="1416" y="2780" font-size="8" style="fill:white">PS4 PS3 XBOne X360 PC </text><rect x="1120" y="2870" width="200" height="40" style="fill:white;stroke:black;stroke-width:1" /><text x="1130" y="2880" font-size="10" style="fill:blue">tr</text><path d="M1100 1690 C1120 1690 1100 2890 1120 2890" style="fill:transparent;stroke:black" /><rect x="1340" y="2870" width="200" height="40" style="fill:white;stroke:black;stroke-width:1" /><text x="1350" y="2880" font-size="10" style="fill:blue">td</text><path d="M1320 2890 C1340 2890 1320 2890 1340 2890" style="fill:transparent;stroke:black" /><rect x="1406" y="2870" width="137" height="40" style="fill:green;stroke:black;stroke-width:1" /><text x="1416" y="2880" font-size="8" style="fill:white">2015</text><rect x="1340" y="2920" width="200" height="40" style="fill:white;stroke:black;stroke-width:1" /><text x="1350" y="2930" font-size="10" style="fill:blue">td</text><path d="M1320 2890 C1340 2890 1320 2940 1340 2940" style="fill:transparent;stroke:black" /><rect x="1406" y="2920" width="137" height="40" style="fill:green;stroke:black;stroke-width:1" /><text x="1416" y="2930" font-size="8" style="fill:white">Game of Thrones: A Telltale Games Series - Episode 5</text><rect x="1340" y="2970" width="200" height="40" style="fill:white;stroke:black;stroke-width:1" /><text x="1350" y="2980" font-size="10" style="fill:blue">td</text><path d="M1320 2890 C1340 2890 1320 2990 1340 2990" style="fill:transparent;stroke:black" /><rect x="1406" y="2970" width="137" height="40" style="fill:green;stroke:black;stroke-width:1" /><text x="1416" y="2980" font-size="8" style="fill:white"> XBOne X360 PS4 PS3 PC </text><rect x="1120" y="3070" width="200" height="40" style="fill:white;stroke:black;stroke-width:1" /><text x="1130" y="3080" font-size="10" style="fill:blue">tr</text><path d="M1100 1690 C1120 1690 1100 3090 1120 3090" style="fill:transparent;stroke:black" /><rect x="1340" y="3070" width="200" height="40" style="fill:white;stroke:black;stroke-width:1" /><text x="1350" y="3080" font-size="10" style="fill:blue">td</text><path d="M1320 3090 C1340 3090 1320 3090 1340 3090" style="fill:transparent;stroke:black" /><rect x="1406" y="3070" width="137" height="40" style="fill:green;stroke:black;stroke-width:1" /><text x="1416" y="3080" font-size="8" style="fill:white">2015 </text><rect x="1340" y="3120" width="200" height="40" style="fill:white;stroke:black;stroke-width:1" /><text x="1350" y="3130" font-size="10" style="fill:blue">td</text><path d="M1320 3090 C1340 3090 1320 3140 1340 3140" style="fill:transparent;stroke:black" /><rect x="1406" y="3120" width="137" height="40" style="fill:green;stroke:black;stroke-width:1" /><text x="1416" y="3130" font-size="8" style="fill:white"> Game of Thrones: A Telltale Games Series - Episode 4 </text><rect x="1340" y="3170" width="200" height="40" style="fill:white;stroke:black;stroke-width:1" /><text x="1350" y="3180" font-size="10" style="fill:blue">td</text><path d="M1320 3090 C1340 3090 1320 3190 1340 3190" style="fill:transparent;stroke:black" /><rect x="1406" y="3170" width="137" height="40" style="fill:green;stroke:black;stroke-width:1" /><text x="1416" y="3180" font-size="8" style="fill:white"> PS4 PS3 XBOne X360 PC </text><rect x="1120" y="3270" width="200" height="40" style="fill:white;stroke:black;stroke-width:1" /><text x="1130" y="3280" font-size="10" style="fill:blue">tr</text><path d="M1100 1690 C1120 1690 1100 3290 1120 3290" style="fill:transparent;stroke:black" /><rect x="1340" y="3270" width="200" height="40" style="fill:white;stroke:black;stroke-width:1" /><text x="1350" y="3280" font-size="10" style="fill:blue">td</text><path d="M1320 3290 C1340 3290 1320 3290 1340 3290" style="fill:transparent;stroke:black" /><rect x="1406" y="3270" width="137" height="40" style="fill:green;stroke:black;stroke-width:1" /><text x="1416" y="3280" font-size="8" style="fill:white">2015 </text><rect x="1340" y="3320" width="200" height="40" style="fill:white;stroke:black;stroke-width:1" /><text x="1350" y="3330" font-size="10" style="fill:blue">td</text><path d="M1320 3290 C1340 3290 1320 3340 1340 3340" style="fill:transparent;stroke:black" /><rect x="1406" y="3320" width="137" height="40" style="fill:green;stroke:black;stroke-width:1" /><text x="1416" y="3330" font-size="8" style="fill:white"> Game of Thrones: A Telltale Games Series - Episode 3 </text><rect x="1340" y="3370" width="200" height="40" style="fill:white;stroke:black;stroke-width:1" /><text x="1350" y="3380" font-size="10" style="fill:blue">td</text><path d="M1320 3290 C1340 3290 1320 3390 1340 3390" style="fill:transparent;stroke:black" /><rect x="1406" y="3370" width="137" height="40" style="fill:green;stroke:black;stroke-width:1" /><text x="1416" y="3380" font-size="8" style="fill:white"> XBOne X360 PS3 PS4 PC </text><rect x="1120" y="3470" width="200" height="40" style="fill:white;stroke:black;stroke-width:1" /><text x="1130" y="3480" font-size="10" style="fill:blue">tr</text><path d="M1100 1690 C1120 1690 1100 3490 1120 3490" style="fill:transparent;stroke:black" /><rect x="1340" y="3470" width="200" height="40" style="fill:white;stroke:black;stroke-width:1" /><text x="1350" y="3480" font-size="10" style="fill:blue">td</text><path d="M1320 3490 C1340 3490 1320 3490 1340 3490" style="fill:transparent;stroke:black" /><rect x="1406" y="3470" width="137" height="40" style="fill:green;stroke:black;stroke-width:1" /><text x="1416" y="3480" font-size="8" style="fill:white">2015 </text><rect x="1340" y="3520" width="200" height="40" style="fill:white;stroke:black;stroke-width:1" /><text x="1350" y="3530" font-size="10" style="fill:blue">td</text><path d="M1320 3490 C1340 3490 1320 3540 1340 3540" style="fill:transparent;stroke:black" /><rect x="1406" y="3520" width="137" height="40" style="fill:green;stroke:black;stroke-width:1" /><text x="1416" y="3530" font-size="8" style="fill:white"> Game of Thrones: A Telltale Games Series - Episode 2: The Lost Lords </text><rect x="1340" y="3570" width="200" height="40" style="fill:white;stroke:black;stroke-width:1" /><text x="1350" y="3580" font-size="10" style="fill:blue">td</text><path d="M1320 3490 C1340 3490 1320 3590 1340 3590" style="fill:transparent;stroke:black" /><rect x="1406" y="3570" width="137" height="40" style="fill:green;stroke:black;stroke-width:1" /><text x="1416" y="3580" font-size="8" style="fill:white"> iPhone Android XBOne X360 PS4 PS3 PC </text><rect x="1120" y="3670" width="200" height="40" style="fill:white;stroke:black;stroke-width:1" /><text x="1130" y="3680" font-size="10" style="fill:blue">tr</text><path d="M1100 1690 C1120 1690 1100 3690 1120 3690" style="fill:transparent;stroke:black" /><rect x="1340" y="3670" width="200" height="40" style="fill:white;stroke:black;stroke-width:1" /><text x="1350" y="3680" font-size="10" style="fill:blue">td</text><path d="M1320 3690 C1340 3690 1320 3690 1340 3690" style="fill:transparent;stroke:black" /><rect x="1406" y="3670" width="137" height="40" style="fill:green;stroke:black;stroke-width:1" /><text x="1416" y="3680" font-size="8" style="fill:white">2014 </text><rect x="1340" y="3720" width="200" height="40" style="fill:white;stroke:black;stroke-width:1" /><text x="1350" y="3730" font-size="10" style="fill:blue">td</text><path d="M1320 3690 C1340 3690 1320 3740 1340 3740" style="fill:transparent;stroke:black" /><rect x="1406" y="3720" width="137" height="40" style="fill:green;stroke:black;stroke-width:1" /><text x="1416" y="3730" font-size="8" style="fill:white"> Game of Thrones: A Telltale Games Series - Episode 1: Iron From Ice </text><rect x="1340" y="3770" width="200" height="40" style="fill:white;stroke:black;stroke-width:1" /><text x="1350" y="3780" font-size="10" style="fill:blue">td</text><path d="M1320 3690 C1340 3690 1320 3790 1340 3790" style="fill:transparent;stroke:black" /><rect x="1406" y="3770" width="137" height="40" style="fill:green;stroke:black;stroke-width:1" /><text x="1416" y="3780" font-size="8" style="fill:white"> iPhone Android XBOne X360 PS3 PS4 PC </text><rect x="1120" y="3870" width="200" height="40" style="fill:white;stroke:black;stroke-width:1" /><text x="1130" y="3880" font-size="10" style="fill:blue">tr</text><path d="M1100 1690 C1120 1690 1100 3890 1120 3890" style="fill:transparent;stroke:black" /><rect x="1340" y="3870" width="200" height="40" style="fill:white;stroke:black;stroke-width:1" /><text x="1350" y="3880" font-size="10" style="fill:blue">td</text><path d="M1320 3890 C1340 3890 1320 3890 1340 3890" style="fill:transparent;stroke:black" /><rect x="1406" y="3870" width="137" height="40" style="fill:green;stroke:black;stroke-width:1" /><text x="1416" y="3880" font-size="8" style="fill:white">2013 </text><rect x="1340" y="3920" width="200" height="40" style="fill:white;stroke:black;stroke-width:1" /><text x="1350" y="3930" font-size="10" style="fill:blue">td</text><path d="M1320 3890 C1340 3890 1320 3940 1340 3940" style="fill:transparent;stroke:black" /><rect x="1406" y="3920" width="137" height="40" style="fill:green;stroke:black;stroke-width:1" /><text x="1416" y="3930" font-size="8" style="fill:white"> Game of Thrones Ascent </text><rect x="1340" y="3970" width="200" height="40" style="fill:white;stroke:black;stroke-width:1" /><text x="1350" y="3980" font-size="10" style="fill:blue">td</text><path d="M1320 3890 C1340 3890 1320 3990 1340 3990" style="fill:transparent;stroke:black" /><rect x="1406" y="3970" width="137" height="40" style="fill:green;stroke:black;stroke-width:1" /><text x="1416" y="3980" font-size="8" style="fill:white"> Android iPhone PC </text><rect x="1120" y="4070" width="200" height="40" style="fill:white;stroke:black;stroke-width:1" /><text x="1130" y="4080" font-size="10" style="fill:blue">tr</text><path d="M1100 1690 C1120 1690 1100 4090 1120 4090" style="fill:transparent;stroke:black" /><rect x="1340" y="4070" width="200" height="40" style="fill:white;stroke:black;stroke-width:1" /><text x="1350" y="4080" font-size="10" style="fill:blue">td</text><path d="M1320 4090 C1340 4090 1320 4090 1340 4090" style="fill:transparent;stroke:black" /><rect x="1406" y="4070" width="137" height="40" style="fill:green;stroke:black;stroke-width:1" /><text x="1416" y="4080" font-size="8" style="fill:white">2012 </text><rect x="1340" y="4120" width="200" height="40" style="fill:white;stroke:black;stroke-width:1" /><text x="1350" y="4130" font-size="10" style="fill:blue">td</text><path d="M1320 4090 C1340 4090 1320 4140 1340 4140" style="fill:transparent;stroke:black" /><rect x="1406" y="4120" width="137" height="40" style="fill:green;stroke:black;stroke-width:1" /><text x="1416" y="4130" font-size="8" style="fill:white"> Game of Thrones </text><rect x="1340" y="4170" width="200" height="40" style="fill:white;stroke:black;stroke-width:1" /><text x="1350" y="4180" font-size="10" style="fill:blue">td</text><path d="M1320 4090 C1340 4090 1320 4190 1340 4190" style="fill:transparent;stroke:black" /><rect x="1406" y="4170" width="137" height="40" style="fill:green;stroke:black;stroke-width:1" /><text x="1416" y="4180" font-size="8" style="fill:white"> Xbox 360 PS3 X360 PC </text><rect x="1120" y="4270" width="200" height="40" style="fill:white;stroke:black;stroke-width:1" /><text x="1130" y="4280" font-size="10" style="fill:blue">tr</text><path d="M1100 1690 C1120 1690 1100 4290 1120 4290" style="fill:transparent;stroke:black" /><rect x="1340" y="4270" width="200" height="40" style="fill:white;stroke:black;stroke-width:1" /><text x="1350" y="4280" font-size="10" style="fill:blue">td</text><path d="M1320 4290 C1340 4290 1320 4290 1340 4290" style="fill:transparent;stroke:black" /><rect x="1406" y="4270" width="137" height="40" style="fill:green;stroke:black;stroke-width:1" /><text x="1416" y="4280" font-size="8" style="fill:white">2011 </text><rect x="1340" y="4320" width="200" height="40" style="fill:white;stroke:black;stroke-width:1" /><text x="1350" y="4330" font-size="10" style="fill:blue">td</text><path d="M1320 4290 C1340 4290 1320 4340 1340 4340" style="fill:transparent;stroke:black" /><rect x="1406" y="4320" width="137" height="40" style="fill:green;stroke:black;stroke-width:1" /><text x="1416" y="4330" font-size="8" style="fill:white"> A Game of Thrones: Genesis </text><rect x="1340" y="4370" width="200" height="40" style="fill:white;stroke:black;stroke-width:1" /><text x="1350" y="4380" font-size="10" style="fill:blue">td</text><path d="M1320 4290 C1340 4290 1320 4390 1340 4390" style="fill:transparent;stroke:black" /><rect x="1406" y="4370" width="137" height="40" style="fill:green;stroke:black;stroke-width:1" /><text x="1416" y="4380" font-size="8" style="fill:white"> PC </text><rect x="460" y="4620" width="200" height="40" style="fill:white;stroke:black;stroke-width:1" /><text x="470" y="4630" font-size="10" style="fill:blue">footer</text><path d="M440 390 C460 390 440 4640 460 4640" style="fill:transparent;stroke:black" /><rect x="680" y="4620" width="200" height="40" style="fill:white;stroke:black;stroke-width:1" /><text x="690" y="4630" font-size="10" style="fill:blue">a</text><path d="M660 4640 C680 4640 660 4640 680 4640" style="fill:transparent;stroke:black" /><text x="690" y="4640" font-size="8" style="fill:black">href: https://validator.w3.org/check?uri=referer</text><rect x="900" y="4620" width="200" height="40" style="fill:white;stroke:black;stroke-width:1" /><text x="910" y="4630" font-size="10" style="fill:blue">img</text><path d="M880 4640 C900 4640 880 4640 900 4640" style="fill:transparent;stroke:black" /><text x="910" y="4640" font-size="8" style="fill:black">src: https://www.w3.org/html/logo/badge/html5-badge-h-solo.png</text><text x="910" y="4650" font-size="8" style="fill:black">alt: HTML5 Válido!</text><text x="910" y="4660" font-size="8" style="fill:black">height: 64</text><text x="910" y="4670" font-size="8" style="fill:black">width: 63</text><rect x="680" y="4720" width="200" height="40" style="fill:white;stroke:black;stroke-width:1" /><text x="690" y="4730" font-size="10" style="fill:blue">a</text><path d="M660 4640 C680 4640 660 4740 680 4740" style="fill:transparent;stroke:black" /><text x="690" y="4740" font-size="8" style="fill:black">href: http://jigsaw.w3.org/css-validator/check/referer</text><rect x="900" y="4720" width="200" height="40" style="fill:white;stroke:black;stroke-width:1" /><text x="910" y="4730" font-size="10" style="fill:blue">img</text><path d="M880 4740 C900 4740 880 4740 900 4740" style="fill:transparent;stroke:black" /><text x="910" y="4740" font-size="8" style="fill:black">style: border:0;width:88px;height:31px</text><text x="910" y="4750" font-size="8" style="fill:black">src: http://jigsaw.w3.org/css-validator/images/vcss</text><text x="910" y="4760" font-size="8" style="fill:black">alt: ¡CSS Válido!</text></svg>