<?xml version="1.0" encoding="utf-8"?><svg width="auto" height="3120" style="overflow:visible " version="1.1" xmlns="http://www.w3.org/2000/svg"><rect x="20" y="20" width="200" height="40" style="fill:white;stroke:black;stroke-width:1" /><text x="30" y="30" font-size="10" style="fill:blue">html</text><text x="30" y="40" font-size="8" style="fill:black">lang: es</text><rect x="240" y="20" width="200" height="40" style="fill:white;stroke:black;stroke-width:1" /><text x="250" y="30" font-size="10" style="fill:blue">head</text><path d="M220 40 C240 40 220 40 240 40" style="fill:transparent;stroke:black" /><rect x="460" y="20" width="200" height="40" style="fill:white;stroke:black;stroke-width:1" /><text x="470" y="30" font-size="10" style="fill:blue">meta</text><path d="M440 40 C460 40 440 40 460 40" style="fill:transparent;stroke:black" /><text x="470" y="40" font-size="8" style="fill:black">charset: UTF-8</text><rect x="460" y="70" width="200" height="40" style="fill:white;stroke:black;stroke-width:1" /><text x="470" y="80" font-size="10" style="fill:blue">title</text><path d="M440 40 C460 40 440 90 460 90" style="fill:transparent;stroke:black" /><rect x="526" y="70" width="137" height="40" style="fill:green;stroke:black;stroke-width:1" /><text x="536" y="80" font-size="8" style="fill:white">Practica 1</text><rect x="460" y="120" width="200" height="40" style="fill:white;stroke:black;stroke-width:1" /><text x="470" y="130" font-size="10" style="fill:blue">link</text><path d="M440 40 C460 40 440 140 460 140" style="fill:transparent;stroke:black" /><text x="470" y="140" font-size="8" style="fill:black">rel: stylesheet</text><text x="470" y="150" font-size="8" style="fill:black">type: text/css</text><text x="470" y="160" font-size="8" style="fill:black">href: estilo1.css</text><rect x="460" y="170" width="200" height="40" style="fill:white;stroke:black;stroke-width:1" /><text x="470" y="180" font-size="10" style="fill:blue">meta</text><path d="M440 40 C460 40 440 190 460 190" style="fill:transparent;stroke:black" /><text x="470" y="190" font-size="8" style="fill:black">name: descripcion</text><text x="470" y="200" font-size="8" style="fill:black">content: Es un resumen que trata sobre la istoria de la famosa saga de Juego de Tronos.</text><rect x="460" y="220" width="200" height="40" style="fill:white;stroke:black;stroke-width:1" /><text x="470" y="230" font-size="10" style="fill:blue">meta</text><path d="M440 40 C460 40 440 240 460 240" style="fill:transparent;stroke:black" /><text x="470" y="240" font-size="8" style="fill:black">name: keywords</text><text x="470" y="250" font-size="8" style="fill:black">content: cancion,hielo,fuego,juego,tronos,guerra,invierno</text><rect x="460" y="270" width="200" height="40" style="fill:white;stroke:black;stroke-width:1" /><text x="470" y="280" font-size="10" style="fill:blue">meta</text><path d="M440 40 C460 40 440 290 460 290" style="fill:transparent;stroke:black" /><text x="470" y="290" font-size="8" style="fill:black">name: autor</text><text x="470" y="300" font-size="8" style="fill:black">content: Lucía de la Granda Prieto</text><rect x="240" y="370" width="200" height="40" style="fill:white;stroke:black;stroke-width:1" /><text x="250" y="380" font-size="10" style="fill:blue">body</text><path d="M220 40 C240 40 220 390 240 390" style="fill:transparent;stroke:black" /><rect x="460" y="370" width="200" height="40" style="fill:white;stroke:black;stroke-width:1" /><text x="470" y="380" font-size="10" style="fill:blue">section</text><path d="M440 390 C460 390 440 390 460 390" style="fill:transparent;stroke:black" /><rect x="680" y="370" width="200" height="40" style="fill:white;stroke:black;stroke-width:1" /><text x="690" y="380" font-size="10" style="fill:blue">h1</text><path d="M660 390 C680 390 660 390 680 390" style="fill:transparent;stroke:black" /><rect x="746" y="370" width="137" height="40" style="fill:green;stroke:black;stroke-width:1" /><text x="756" y="380" font-size="8" style="fill:white">Los libros</text><rect x="680" y="420" width="200" height="40" style="fill:white;stroke:black;stroke-width:1" /><text x="690" y="430" font-size="10" style="fill:blue">nav</text><path d="M660 390 C680 390 660 440 680 440" style="fill:transparent;stroke:black" /><rect x="900" y="420" width="200" height="40" style="fill:white;stroke:black;stroke-width:1" /><text x="910" y="430" font-size="10" style="fill:blue">a</text><path d="M880 440 C900 440 880 440 900 440" style="fill:transparent;stroke:black" /><text x="910" y="440" font-size="8" style="fill:black">href: SEW.html</text><text x="910" y="450" font-size="8" style="fill:black">tabindex: 1</text><text x="910" y="460" font-size="8" style="fill:black">accesskey: J</text><rect x="966" y="420" width="137" height="40" style="fill:green;stroke:black;stroke-width:1" /><text x="976" y="430" font-size="8" style="fill:white">Ejercicios Prácticas </text><rect x="900" y="470" width="200" height="40" style="fill:white;stroke:black;stroke-width:1" /><text x="910" y="480" font-size="10" style="fill:blue">a</text><path d="M880 440 C900 440 880 490 900 490" style="fill:transparent;stroke:black" /><text x="910" y="490" font-size="8" style="fill:black">href: textoEditado.html</text><text x="910" y="500" font-size="8" style="fill:black">tabindex: 2</text><text x="910" y="510" font-size="8" style="fill:black">accesskey: I</text><rect x="966" y="470" width="137" height="40" style="fill:green;stroke:black;stroke-width:1" /><text x="976" y="480" font-size="8" style="fill:white">Inicio</text><rect x="900" y="520" width="200" height="40" style="fill:white;stroke:black;stroke-width:1" /><text x="910" y="530" font-size="10" style="fill:blue">a</text><path d="M880 440 C900 440 880 540 900 540" style="fill:transparent;stroke:black" /><text x="910" y="540" font-size="8" style="fill:black">href: LosLibros.html</text><text x="910" y="550" font-size="8" style="fill:black">tabindex: 3</text><text x="910" y="560" font-size="8" style="fill:black">accesskey: B</text><rect x="966" y="520" width="137" height="40" style="fill:green;stroke:black;stroke-width:1" /><text x="976" y="530" font-size="8" style="fill:white">Los libros</text><rect x="900" y="570" width="200" height="40" style="fill:white;stroke:black;stroke-width:1" /><text x="910" y="580" font-size="10" style="fill:blue">a</text><path d="M880 440 C900 440 880 590 900 590" style="fill:transparent;stroke:black" /><text x="910" y="590" font-size="8" style="fill:black">href: ResumenHistoria.html</text><text x="910" y="600" font-size="8" style="fill:black">tabindex: 4</text><text x="910" y="610" font-size="8" style="fill:black">accesskey: R</text><rect x="966" y="570" width="137" height="40" style="fill:green;stroke:black;stroke-width:1" /><text x="976" y="580" font-size="8" style="fill:white">Resumen historia</text><rect x="900" y="620" width="200" height="40" style="fill:white;stroke:black;stroke-width:1" /><text x="910" y="630" font-size="10" style="fill:blue">a</text><path d="M880 440 C900 440 880 640 900 640" style="fill:transparent;stroke:black" /><text x="910" y="640" font-size="8" style="fill:black">href: Personajes.html</text><text x="910" y="650" font-size="8" style="fill:black">tabindex: 5</text><text x="910" y="660" font-size="8" style="fill:black">accesskey: P</text><rect x="966" y="620" width="137" height="40" style="fill:green;stroke:black;stroke-width:1" /><text x="976" y="630" font-size="8" style="fill:white">Personajes</text><rect x="900" y="670" width="200" height="40" style="fill:white;stroke:black;stroke-width:1" /><text x="910" y="680" font-size="10" style="fill:blue">a</text><path d="M880 440 C900 440 880 690 900 690" style="fill:transparent;stroke:black" /><text x="910" y="690" font-size="8" style="fill:black">href: Fuentes.html</text><text x="910" y="700" font-size="8" style="fill:black">tabindex: 6</text><text x="910" y="710" font-size="8" style="fill:black">accesskey: L</text><rect x="966" y="670" width="137" height="40" style="fill:green;stroke:black;stroke-width:1" /><text x="976" y="680" font-size="8" style="fill:white">Fuentes literarias e historicas</text><rect x="900" y="720" width="200" height="40" style="fill:white;stroke:black;stroke-width:1" /><text x="910" y="730" font-size="10" style="fill:blue">a</text><path d="M880 440 C900 440 880 740 900 740" style="fill:transparent;stroke:black" /><text x="910" y="740" font-size="8" style="fill:black">href: Adaptaciones.html</text><text x="910" y="750" font-size="8" style="fill:black">tabindex: 7</text><text x="910" y="760" font-size="8" style="fill:black">accesskey: A</text><rect x="966" y="720" width="137" height="40" style="fill:green;stroke:black;stroke-width:1" /><text x="976" y="730" font-size="8" style="fill:white">Adaptaciones</text><rect x="900" y="770" width="200" height="40" style="fill:white;stroke:black;stroke-width:1" /><text x="910" y="780" font-size="10" style="fill:blue">a</text><path d="M880 440 C900 440 880 790 900 790" style="fill:transparent;stroke:black" /><text x="910" y="790" font-size="8" style="fill:black">href: MasInformacion.html</text><text x="910" y="800" font-size="8" style="fill:black">tabindex: 8</text><text x="910" y="810" font-size="8" style="fill:black">accesskey: M</text><rect x="966" y="770" width="137" height="40" style="fill:green;stroke:black;stroke-width:1" /><text x="976" y="780" font-size="8" style="fill:white">Más información</text><rect x="680" y="870" width="200" height="40" style="fill:white;stroke:black;stroke-width:1" /><text x="690" y="880" font-size="10" style="fill:blue">ul</text><path d="M660 390 C680 390 660 890 680 890" style="fill:transparent;stroke:black" /><rect x="900" y="870" width="200" height="40" style="fill:white;stroke:black;stroke-width:1" /><text x="910" y="880" font-size="10" style="fill:blue">li</text><path d="M880 890 C900 890 880 890 900 890" style="fill:transparent;stroke:black" /><rect x="966" y="870" width="137" height="40" style="fill:green;stroke:black;stroke-width:1" /><text x="976" y="880" font-size="8" style="fill:white">Serie Canción de hielo y fuego (A Song of Ice and Fire, desde 1996; 5 obras publicadas de un total de 7). Títulos publicados:
        </text><rect x="1120" y="870" width="200" height="40" style="fill:white;stroke:black;stroke-width:1" /><text x="1130" y="880" font-size="10" style="fill:blue">ul</text><path d="M1100 890 C1120 890 1100 890 1120 890" style="fill:transparent;stroke:black" /><rect x="1340" y="870" width="200" height="40" style="fill:white;stroke:black;stroke-width:1" /><text x="1350" y="880" font-size="10" style="fill:blue">li</text><path d="M1320 890 C1340 890 1320 890 1340 890" style="fill:transparent;stroke:black" /><rect x="1406" y="870" width="137" height="40" style="fill:green;stroke:black;stroke-width:1" /><text x="1416" y="880" font-size="8" style="fill:white"> Juego de tronos (A Game of Thrones, 1996), publicada por Gigamesh en 2002.</text><rect x="1340" y="920" width="200" height="40" style="fill:white;stroke:black;stroke-width:1" /><text x="1350" y="930" font-size="10" style="fill:blue">li</text><path d="M1320 890 C1340 890 1320 940 1340 940" style="fill:transparent;stroke:black" /><rect x="1406" y="920" width="137" height="40" style="fill:green;stroke:black;stroke-width:1" /><text x="1416" y="930" font-size="8" style="fill:white">Choque de reyes (A Clash of Kings, 1998), publicada por Gigamesh en 2003.</text><rect x="1340" y="970" width="200" height="40" style="fill:white;stroke:black;stroke-width:1" /><text x="1350" y="980" font-size="10" style="fill:blue">li</text><path d="M1320 890 C1340 890 1320 990 1340 990" style="fill:transparent;stroke:black" /><rect x="1406" y="970" width="137" height="40" style="fill:green;stroke:black;stroke-width:1" /><text x="1416" y="980" font-size="8" style="fill:white">Tormenta de espadas (A Storm of Swords, 2 vols. 2000), traducciónde Cristina Macía, publicada por Gigamesh en 2005.</text><rect x="1340" y="1020" width="200" height="40" style="fill:white;stroke:black;stroke-width:1" /><text x="1350" y="1030" font-size="10" style="fill:blue">li</text><path d="M1320 890 C1340 890 1320 1040 1340 1040" style="fill:transparent;stroke:black" /><rect x="1406" y="1020" width="137" height="40" style="fill:green;stroke:black;stroke-width:1" /><text x="1416" y="1030" font-size="8" style="fill:white">Festín de cuervos (A Feast for Crows, 2005), publicada por Gigamesh en 2007.</text><rect x="1340" y="1070" width="200" height="40" style="fill:white;stroke:black;stroke-width:1" /><text x="1350" y="1080" font-size="10" style="fill:blue">li</text><path d="M1320 890 C1340 890 1320 1090 1340 1090" style="fill:transparent;stroke:black" /><rect x="1406" y="1070" width="137" height="40" style="fill:green;stroke:black;stroke-width:1" /><text x="1416" y="1080" font-size="8" style="fill:white">Danza de dragones (A Dance with Dragons, 2011), publicada por Gigamesh en 2012.</text><rect x="900" y="1220" width="200" height="40" style="fill:white;stroke:black;stroke-width:1" /><text x="910" y="1230" font-size="10" style="fill:blue">li</text><path d="M880 890 C900 890 880 1240 900 1240" style="fill:transparent;stroke:black" /><rect x="966" y="1220" width="137" height="40" style="fill:green;stroke:black;stroke-width:1" /><text x="976" y="1230" font-size="8" style="fill:white">Futuros títulos de esta serie serán:
        </text><rect x="1120" y="1220" width="200" height="40" style="fill:white;stroke:black;stroke-width:1" /><text x="1130" y="1230" font-size="10" style="fill:blue">ul</text><path d="M1100 1240 C1120 1240 1100 1240 1120 1240" style="fill:transparent;stroke:black" /><rect x="1340" y="1220" width="200" height="40" style="fill:white;stroke:black;stroke-width:1" /><text x="1350" y="1230" font-size="10" style="fill:blue">li</text><path d="M1320 1240 C1340 1240 1320 1240 1340 1240" style="fill:transparent;stroke:black" /><rect x="1406" y="1220" width="137" height="40" style="fill:green;stroke:black;stroke-width:1" /><text x="1416" y="1230" font-size="8" style="fill:white">Vientos de invierno (The Winds of Winter), sexta obra de la serie, prevista para 2018.</text><rect x="1340" y="1270" width="200" height="40" style="fill:white;stroke:black;stroke-width:1" /><text x="1350" y="1280" font-size="10" style="fill:blue">li</text><path d="M1320 1240 C1340 1240 1320 1290 1340 1290" style="fill:transparent;stroke:black" /><rect x="1406" y="1270" width="137" height="40" style="fill:green;stroke:black;stroke-width:1" /><text x="1416" y="1280" font-size="8" style="fill:white">Sueño de primavera (A Dream of Spring),  séptima y última obra de la serie.</text><rect x="680" y="1470" width="200" height="40" style="fill:white;stroke:black;stroke-width:1" /><text x="690" y="1480" font-size="10" style="fill:blue">p</text><path d="M660 390 C680 390 660 1490 680 1490" style="fill:transparent;stroke:black" /><rect x="746" y="1470" width="137" height="40" style="fill:green;stroke:black;stroke-width:1" /><text x="756" y="1480" font-size="8" style="fill:white">A la serie principal se suman tres relatos cortos que actúan como precuelas, ya que se desarrollan en el mismo mundo, pero aproximadamente noventa años antes.
    Son:
    </text><rect x="680" y="1520" width="200" height="40" style="fill:white;stroke:black;stroke-width:1" /><text x="690" y="1530" font-size="10" style="fill:blue">ul</text><path d="M660 390 C680 390 660 1540 680 1540" style="fill:transparent;stroke:black" /><rect x="900" y="1520" width="200" height="40" style="fill:white;stroke:black;stroke-width:1" /><text x="910" y="1530" font-size="10" style="fill:blue">li</text><path d="M880 1540 C900 1540 880 1540 900 1540" style="fill:transparent;stroke:black" /><rect x="966" y="1520" width="137" height="40" style="fill:green;stroke:black;stroke-width:1" /><text x="976" y="1530" font-size="8" style="fill:white">The Hedge Knight (El caballero errante).</text><rect x="900" y="1570" width="200" height="40" style="fill:white;stroke:black;stroke-width:1" /><text x="910" y="1580" font-size="10" style="fill:blue">li</text><path d="M880 1540 C900 1540 880 1590 900 1590" style="fill:transparent;stroke:black" /><rect x="966" y="1570" width="137" height="40" style="fill:green;stroke:black;stroke-width:1" /><text x="976" y="1580" font-size="8" style="fill:white">The Sworn Sword (La espada leal)</text><rect x="900" y="1620" width="200" height="40" style="fill:white;stroke:black;stroke-width:1" /><text x="910" y="1630" font-size="10" style="fill:blue">li</text><path d="M880 1540 C900 1540 880 1640 900 1640" style="fill:transparent;stroke:black" /><rect x="966" y="1620" width="137" height="40" style="fill:green;stroke:black;stroke-width:1" /><text x="976" y="1630" font-size="8" style="fill:white">The Mystery Knight (El caballero misterioso).</text><rect x="680" y="1720" width="200" height="40" style="fill:white;stroke:black;stroke-width:1" /><text x="690" y="1730" font-size="10" style="fill:blue">p</text><path d="M660 390 C680 390 660 1740 680 1740" style="fill:transparent;stroke:black" /><rect x="746" y="1720" width="137" height="40" style="fill:green;stroke:black;stroke-width:1" /><text x="756" y="1730" font-size="8" style="fill:white">En conjunto se las conoce como Dunk and Egg Tales (Cuentos de Dunk y Egg). </text><rect x="680" y="1770" width="200" height="40" style="fill:white;stroke:black;stroke-width:1" /><text x="690" y="1780" font-size="10" style="fill:blue">p</text><path d="M660 390 C680 390 660 1790 680 1790" style="fill:transparent;stroke:black" /><rect x="746" y="1770" width="137" height="40" style="fill:green;stroke:black;stroke-width:1" /><text x="756" y="1780" font-size="8" style="fill:white">Los dos primeros relatos han aparecido traducidos al castellano en libros que recopilan relatos cortos de fantasía, a saber, "El caballero errante" en "Leyendas negras - Vol. I" (editorial DeBolsillo, 2000), y "La espada leal" en "Leyendas" (editorial La factoría de ideas, 2006) y en "La Espada Leal" (reedición con nombre distinto del libro anterior, editorial La factoría de ideas, 2012). En 2015 fueron recopilados los tres relatos en el libro El caballero de los Siete Reinos (Plaza Janés, 2015). Los mismos dos primeros relatos han sido trasladados con éxito al cómic y se puede encontrar en dos volúmenes editados por DeBolsillo (previamente fueron publicados en seis volúmenes por Devir). The Mystery Knight fue finalista en 2011 del World Fantasy Award.</text><rect x="680" y="1820" width="200" height="40" style="fill:white;stroke:black;stroke-width:1" /><text x="690" y="1830" font-size="10" style="fill:blue">p</text><path d="M660 390 C680 390 660 1840 680 1840" style="fill:transparent;stroke:black" /><rect x="746" y="1820" width="137" height="40" style="fill:green;stroke:black;stroke-width:1" /><text x="756" y="1830" font-size="8" style="fill:white">La saga se complementa con The World of Ice and Fire (El mundo de hielo y fuego), un libro que cuenta la historia de Poniente narrada desde la perspectiva de varios maestres, escrito por Martin, Elio M. García jr y Linda Antonsson.</text><rect x="680" y="1870" width="200" height="40" style="fill:white;stroke:black;stroke-width:1" /><text x="690" y="1880" font-size="10" style="fill:blue">p</text><path d="M660 390 C680 390 660 1890 680 1890" style="fill:transparent;stroke:black" /><rect x="746" y="1870" width="137" height="40" style="fill:green;stroke:black;stroke-width:1" /><text x="756" y="1880" font-size="8" style="fill:white">Adicionalmente hay otras novelas pequeñas, la primera se titula "La princesa y la Reina" la cual narra con detalle lo ocurrido en la "Danza de los dragones" esta se menciona en el mundo de hielo y fuego pero aqui ponen mas detalle en las mas de 80 paginas. La siguiente es llamada en el idioma original "The rogue prince" que narra un poco lo sucedido antes de la danza de los dragones, es sobre el hermano del rey de ese entonces, Daeron targaryen, hermano del Rey Viserys I.</text><rect x="680" y="1920" width="200" height="40" style="fill:white;stroke:black;stroke-width:1" /><text x="690" y="1930" font-size="10" style="fill:blue">p</text><path d="M660 390 C680 390 660 1940 680 1940" style="fill:transparent;stroke:black" /><rect x="746" y="1920" width="137" height="40" style="fill:green;stroke:black;stroke-width:1" /><text x="756" y="1930" font-size="8" style="fill:white">En octubre del 2018 saldra una nueva novela llamada "Sons of Dragon" que narrará parte de la vida de los hijos de Aeron Targaryen "el conquistador": Aenys Targaryen y Maegor Targaryen conocido como "Maegor el cruel".</text><rect x="680" y="1970" width="200" height="40" style="fill:white;stroke:black;stroke-width:1" /><text x="690" y="1980" font-size="10" style="fill:blue">p</text><path d="M660 390 C680 390 660 1990 680 1990" style="fill:transparent;stroke:black" /><rect x="746" y="1970" width="137" height="40" style="fill:green;stroke:black;stroke-width:1" /><text x="756" y="1980" font-size="8" style="fill:white">Varios capítulos de las novelas principales se han recopilado previamente a la publicación y como avances promocionales de los libros a los cuales pertenecen. Estos son:</text><rect x="680" y="2020" width="200" height="40" style="fill:white;stroke:black;stroke-width:1" /><text x="690" y="2030" font-size="10" style="fill:blue">dl</text><path d="M660 390 C680 390 660 2040 680 2040" style="fill:transparent;stroke:black" /><rect x="900" y="2020" width="200" height="40" style="fill:white;stroke:black;stroke-width:1" /><text x="910" y="2030" font-size="10" style="fill:blue">dt</text><path d="M880 2040 C900 2040 880 2040 900 2040" style="fill:transparent;stroke:black" /><rect x="966" y="2020" width="137" height="40" style="fill:green;stroke:black;stroke-width:1" /><text x="976" y="2030" font-size="8" style="fill:white">Sangre de dragón</text><rect x="900" y="2070" width="200" height="40" style="fill:white;stroke:black;stroke-width:1" /><text x="910" y="2080" font-size="10" style="fill:blue">dd</text><path d="M880 2040 C900 2040 880 2090 900 2090" style="fill:transparent;stroke:black" /><rect x="966" y="2070" width="137" height="40" style="fill:green;stroke:black;stroke-width:1" /><text x="976" y="2080" font-size="8" style="fill:white">Basado en los capítulos sobre Daenerys en Juego de tronos. Recibió el Premio Hugo de 1997.
        </text><rect x="900" y="2120" width="200" height="40" style="fill:white;stroke:black;stroke-width:1" /><text x="910" y="2130" font-size="10" style="fill:blue">dt</text><path d="M880 2040 C900 2040 880 2140 900 2140" style="fill:transparent;stroke:black" /><rect x="966" y="2120" width="137" height="40" style="fill:green;stroke:black;stroke-width:1" /><text x="976" y="2130" font-size="8" style="fill:white">Hijos del kraken</text><rect x="900" y="2170" width="200" height="40" style="fill:white;stroke:black;stroke-width:1" /><text x="910" y="2180" font-size="10" style="fill:blue">dd</text><path d="M880 2040 C900 2040 880 2190 900 2190" style="fill:transparent;stroke:black" /><rect x="966" y="2170" width="137" height="40" style="fill:green;stroke:black;stroke-width:1" /><text x="976" y="2180" font-size="8" style="fill:white">Cuatro capítulos de Festín de cuervos que transcurren en las Islas del Hierro. No debe leerse sin haber terminado Tormenta de espadas. Se comentan aspectos importantes de la trama que trascurren al final del tercer libro.</text><rect x="900" y="2220" width="200" height="40" style="fill:white;stroke:black;stroke-width:1" /><text x="910" y="2230" font-size="10" style="fill:blue">dt</text><path d="M880 2040 C900 2040 880 2240 900 2240" style="fill:transparent;stroke:black" /><rect x="966" y="2220" width="137" height="40" style="fill:green;stroke:black;stroke-width:1" /><text x="976" y="2230" font-size="8" style="fill:white">Camino de dragón</text><rect x="900" y="2270" width="200" height="40" style="fill:white;stroke:black;stroke-width:1" /><text x="910" y="2280" font-size="10" style="fill:blue">dd</text><path d="M880 2040 C900 2040 880 2290 900 2290" style="fill:transparent;stroke:black" /><rect x="966" y="2270" width="137" height="40" style="fill:green;stroke:black;stroke-width:1" /><text x="976" y="2280" font-size="8" style="fill:white">Novela corta adelanto de Tormenta de espadas.</text><rect x="900" y="2320" width="200" height="40" style="fill:white;stroke:black;stroke-width:1" /><text x="910" y="2330" font-size="10" style="fill:blue">dt</text><path d="M880 2040 C900 2040 880 2340 900 2340" style="fill:transparent;stroke:black" /><rect x="966" y="2320" width="137" height="40" style="fill:green;stroke:black;stroke-width:1" /><text x="976" y="2330" font-size="8" style="fill:white">Dominio de dragones</text><rect x="900" y="2370" width="200" height="40" style="fill:white;stroke:black;stroke-width:1" /><text x="910" y="2380" font-size="10" style="fill:blue">dd</text><path d="M880 2040 C900 2040 880 2390 900 2390" style="fill:transparent;stroke:black" /><rect x="966" y="2370" width="137" height="40" style="fill:green;stroke:black;stroke-width:1" /><text x="976" y="2380" font-size="8" style="fill:white">Los tres primeros capítulos de Daenerys en Danza de dragones. Pueden leerse sin haber leído Festín de cuervos pues no revela nada de la trama de este último libro.</text><rect x="680" y="2470" width="200" height="40" style="fill:white;stroke:black;stroke-width:1" /><text x="690" y="2480" font-size="10" style="fill:blue">p</text><path d="M660 390 C680 390 660 2490 680 2490" style="fill:transparent;stroke:black" /><rect x="746" y="2470" width="137" height="40" style="fill:green;stroke:black;stroke-width:1" /><text x="756" y="2480" font-size="8" style="fill:white">Estos cuatro avances han sido editados por Ediciones Gigamesh fuera de colección y repartidos gratuitamente en ocasiones especiales. Por ejemplo, Dominio de dragones se lanzó con motivo de la fiesta del Día del Libro del año 2006. Ninguno de estos volúmenes está a la venta.</text><rect x="460" y="2570" width="200" height="40" style="fill:white;stroke:black;stroke-width:1" /><text x="470" y="2580" font-size="10" style="fill:blue">section</text><path d="M440 390 C460 390 440 2590 460 2590" style="fill:transparent;stroke:black" /><rect x="680" y="2570" width="200" height="40" style="fill:white;stroke:black;stroke-width:1" /><text x="690" y="2580" font-size="10" style="fill:blue">h2</text><path d="M660 2590 C680 2590 660 2590 680 2590" style="fill:transparent;stroke:black" /><rect x="746" y="2570" width="137" height="40" style="fill:green;stroke:black;stroke-width:1" /><text x="756" y="2580" font-size="8" style="fill:white">Temática de las novelas</text><rect x="680" y="2620" width="200" height="40" style="fill:white;stroke:black;stroke-width:1" /><text x="690" y="2630" font-size="10" style="fill:blue">p</text><path d="M660 2590 C680 2590 660 2640 680 2640" style="fill:transparent;stroke:black" /><rect x="746" y="2620" width="137" height="40" style="fill:green;stroke:black;stroke-width:1" /><text x="756" y="2630" font-size="8" style="fill:white">La saga es conocida por tener personajes complejos, cambios de trama violentos y repentinos, e intrigas políticas bien desarrolladas. En un género donde la magia normalmente posee un papel central en el argumento, Canción de hielo y fuego se caracteriza por un uso limitado y sutil de la misma, empleándola como una fuerza ambigua y, a menudo, oscura.</text><rect x="680" y="2670" width="200" height="40" style="fill:white;stroke:black;stroke-width:1" /><text x="690" y="2680" font-size="10" style="fill:blue">p</text><path d="M660 2590 C680 2590 660 2690 680 2690" style="fill:transparent;stroke:black" /><rect x="746" y="2670" width="137" height="40" style="fill:green;stroke:black;stroke-width:1" /><text x="756" y="2680" font-size="8" style="fill:white">Además, las novelas no giran alrededor de la lucha entre el Bien y el Mal, sino que los arcos argumentales se basan principalmente en luchas políticas y guerras civiles; solo hay uno o dos arcos que sugieren la posibilidad de una amenaza externa.</text><rect x="460" y="2770" width="200" height="40" style="fill:white;stroke:black;stroke-width:1" /><text x="470" y="2780" font-size="10" style="fill:blue">footer</text><path d="M440 390 C460 390 440 2790 460 2790" style="fill:transparent;stroke:black" /><rect x="680" y="2770" width="200" height="40" style="fill:white;stroke:black;stroke-width:1" /><text x="690" y="2780" font-size="10" style="fill:blue">a</text><path d="M660 2790 C680 2790 660 2790 680 2790" style="fill:transparent;stroke:black" /><text x="690" y="2790" font-size="8" style="fill:black">href: https://validator.w3.org/check?uri=referer</text><rect x="900" y="2770" width="200" height="40" style="fill:white;stroke:black;stroke-width:1" /><text x="910" y="2780" font-size="10" style="fill:blue">img</text><path d="M880 2790 C900 2790 880 2790 900 2790" style="fill:transparent;stroke:black" /><text x="910" y="2790" font-size="8" style="fill:black">src: https://www.w3.org/html/logo/badge/html5-badge-h-solo.png</text><text x="910" y="2800" font-size="8" style="fill:black">alt: HTML5 Válido!</text><text x="910" y="2810" font-size="8" style="fill:black">height: 64</text><text x="910" y="2820" font-size="8" style="fill:black">width: 63</text><rect x="680" y="2870" width="200" height="40" style="fill:white;stroke:black;stroke-width:1" /><text x="690" y="2880" font-size="10" style="fill:blue">a</text><path d="M660 2790 C680 2790 660 2890 680 2890" style="fill:transparent;stroke:black" /><text x="690" y="2890" font-size="8" style="fill:black">href: http://jigsaw.w3.org/css-validator/check/referer</text><rect x="900" y="2870" width="200" height="40" style="fill:white;stroke:black;stroke-width:1" /><text x="910" y="2880" font-size="10" style="fill:blue">img</text><path d="M880 2890 C900 2890 880 2890 900 2890" style="fill:transparent;stroke:black" /><text x="910" y="2890" font-size="8" style="fill:black">style: border:0;width:88px;height:31px</text><text x="910" y="2900" font-size="8" style="fill:black">src: http://jigsaw.w3.org/css-validator/images/vcss</text><text x="910" y="2910" font-size="8" style="fill:black">alt: ¡CSS Válido!</text></svg>