<?xml version="1.0" encoding="utf-8"?><svg width="auto" height="2370" style="overflow:visible " version="1.1" xmlns="http://www.w3.org/2000/svg"><rect x="20" y="20" width="200" height="40" style="fill:white;stroke:black;stroke-width:1" /><text x="30" y="30" font-size="10" style="fill:blue">html</text><text x="30" y="40" font-size="8" style="fill:black">lang: es</text><rect x="240" y="20" width="200" height="40" style="fill:white;stroke:black;stroke-width:1" /><text x="250" y="30" font-size="10" style="fill:blue">head</text><path d="M220 40 C240 40 220 40 240 40" style="fill:transparent;stroke:black" /><rect x="460" y="20" width="200" height="40" style="fill:white;stroke:black;stroke-width:1" /><text x="470" y="30" font-size="10" style="fill:blue">meta</text><path d="M440 40 C460 40 440 40 460 40" style="fill:transparent;stroke:black" /><text x="470" y="40" font-size="8" style="fill:black">charset: UTF-8</text><rect x="460" y="70" width="200" height="40" style="fill:white;stroke:black;stroke-width:1" /><text x="470" y="80" font-size="10" style="fill:blue">title</text><path d="M440 40 C460 40 440 90 460 90" style="fill:transparent;stroke:black" /><rect x="526" y="70" width="137" height="40" style="fill:green;stroke:black;stroke-width:1" /><text x="536" y="80" font-size="8" style="fill:white">Practica 1</text><rect x="460" y="120" width="200" height="40" style="fill:white;stroke:black;stroke-width:1" /><text x="470" y="130" font-size="10" style="fill:blue">link</text><path d="M440 40 C460 40 440 140 460 140" style="fill:transparent;stroke:black" /><text x="470" y="140" font-size="8" style="fill:black">rel: stylesheet</text><text x="470" y="150" font-size="8" style="fill:black">type: text/css</text><text x="470" y="160" font-size="8" style="fill:black">href: estilo1.css</text><rect x="460" y="170" width="200" height="40" style="fill:white;stroke:black;stroke-width:1" /><text x="470" y="180" font-size="10" style="fill:blue">meta</text><path d="M440 40 C460 40 440 190 460 190" style="fill:transparent;stroke:black" /><text x="470" y="190" font-size="8" style="fill:black">name: descripcion</text><text x="470" y="200" font-size="8" style="fill:black">content: Es un resumen que trata sobre la istoria de la famosa saga de Juego de Tronos.</text><rect x="460" y="220" width="200" height="40" style="fill:white;stroke:black;stroke-width:1" /><text x="470" y="230" font-size="10" style="fill:blue">meta</text><path d="M440 40 C460 40 440 240 460 240" style="fill:transparent;stroke:black" /><text x="470" y="240" font-size="8" style="fill:black">name: keywords</text><text x="470" y="250" font-size="8" style="fill:black">content: cancion,hielo,fuego,juego,tronos,guerra,invierno</text><rect x="460" y="270" width="200" height="40" style="fill:white;stroke:black;stroke-width:1" /><text x="470" y="280" font-size="10" style="fill:blue">meta</text><path d="M440 40 C460 40 440 290 460 290" style="fill:transparent;stroke:black" /><text x="470" y="290" font-size="8" style="fill:black">name: autor</text><text x="470" y="300" font-size="8" style="fill:black">content: Lucía de la Granda Prieto</text><rect x="240" y="370" width="200" height="40" style="fill:white;stroke:black;stroke-width:1" /><text x="250" y="380" font-size="10" style="fill:blue">body</text><path d="M220 40 C240 40 220 390 240 390" style="fill:transparent;stroke:black" /><rect x="460" y="370" width="200" height="40" style="fill:white;stroke:black;stroke-width:1" /><text x="470" y="380" font-size="10" style="fill:blue">section</text><path d="M440 390 C460 390 440 390 460 390" style="fill:transparent;stroke:black" /><rect x="680" y="370" width="200" height="40" style="fill:white;stroke:black;stroke-width:1" /><text x="690" y="380" font-size="10" style="fill:blue">h1</text><path d="M660 390 C680 390 660 390 680 390" style="fill:transparent;stroke:black" /><rect x="746" y="370" width="137" height="40" style="fill:green;stroke:black;stroke-width:1" /><text x="756" y="380" font-size="8" style="fill:white">Personajes principales</text><rect x="680" y="420" width="200" height="40" style="fill:white;stroke:black;stroke-width:1" /><text x="690" y="430" font-size="10" style="fill:blue">nav</text><path d="M660 390 C680 390 660 440 680 440" style="fill:transparent;stroke:black" /><rect x="900" y="420" width="200" height="40" style="fill:white;stroke:black;stroke-width:1" /><text x="910" y="430" font-size="10" style="fill:blue">a</text><path d="M880 440 C900 440 880 440 900 440" style="fill:transparent;stroke:black" /><text x="910" y="440" font-size="8" style="fill:black">href: SEW.html</text><text x="910" y="450" font-size="8" style="fill:black">tabindex: 1</text><text x="910" y="460" font-size="8" style="fill:black">accesskey: J</text><rect x="966" y="420" width="137" height="40" style="fill:green;stroke:black;stroke-width:1" /><text x="976" y="430" font-size="8" style="fill:white">Ejercicios Prácticas </text><rect x="900" y="470" width="200" height="40" style="fill:white;stroke:black;stroke-width:1" /><text x="910" y="480" font-size="10" style="fill:blue">a</text><path d="M880 440 C900 440 880 490 900 490" style="fill:transparent;stroke:black" /><text x="910" y="490" font-size="8" style="fill:black">href: textoEditado.html</text><text x="910" y="500" font-size="8" style="fill:black">tabindex: 2</text><text x="910" y="510" font-size="8" style="fill:black">accesskey: I</text><rect x="966" y="470" width="137" height="40" style="fill:green;stroke:black;stroke-width:1" /><text x="976" y="480" font-size="8" style="fill:white">Inicio</text><rect x="900" y="520" width="200" height="40" style="fill:white;stroke:black;stroke-width:1" /><text x="910" y="530" font-size="10" style="fill:blue">a</text><path d="M880 440 C900 440 880 540 900 540" style="fill:transparent;stroke:black" /><text x="910" y="540" font-size="8" style="fill:black">href: LosLibros.html</text><text x="910" y="550" font-size="8" style="fill:black">tabindex: 3</text><text x="910" y="560" font-size="8" style="fill:black">accesskey: B</text><rect x="966" y="520" width="137" height="40" style="fill:green;stroke:black;stroke-width:1" /><text x="976" y="530" font-size="8" style="fill:white">Los libros</text><rect x="900" y="570" width="200" height="40" style="fill:white;stroke:black;stroke-width:1" /><text x="910" y="580" font-size="10" style="fill:blue">a</text><path d="M880 440 C900 440 880 590 900 590" style="fill:transparent;stroke:black" /><text x="910" y="590" font-size="8" style="fill:black">href: ResumenHistoria.html</text><text x="910" y="600" font-size="8" style="fill:black">tabindex: 4</text><text x="910" y="610" font-size="8" style="fill:black">accesskey: R</text><rect x="966" y="570" width="137" height="40" style="fill:green;stroke:black;stroke-width:1" /><text x="976" y="580" font-size="8" style="fill:white">Resumen historia</text><rect x="900" y="620" width="200" height="40" style="fill:white;stroke:black;stroke-width:1" /><text x="910" y="630" font-size="10" style="fill:blue">a</text><path d="M880 440 C900 440 880 640 900 640" style="fill:transparent;stroke:black" /><text x="910" y="640" font-size="8" style="fill:black">href: Personajes.html</text><text x="910" y="650" font-size="8" style="fill:black">tabindex: 5</text><text x="910" y="660" font-size="8" style="fill:black">accesskey: P</text><rect x="966" y="620" width="137" height="40" style="fill:green;stroke:black;stroke-width:1" /><text x="976" y="630" font-size="8" style="fill:white">Personajes</text><rect x="900" y="670" width="200" height="40" style="fill:white;stroke:black;stroke-width:1" /><text x="910" y="680" font-size="10" style="fill:blue">a</text><path d="M880 440 C900 440 880 690 900 690" style="fill:transparent;stroke:black" /><text x="910" y="690" font-size="8" style="fill:black">href: Fuentes.html</text><text x="910" y="700" font-size="8" style="fill:black">tabindex: 6</text><text x="910" y="710" font-size="8" style="fill:black">accesskey: L</text><rect x="966" y="670" width="137" height="40" style="fill:green;stroke:black;stroke-width:1" /><text x="976" y="680" font-size="8" style="fill:white">Fuentes literarias e historicas</text><rect x="900" y="720" width="200" height="40" style="fill:white;stroke:black;stroke-width:1" /><text x="910" y="730" font-size="10" style="fill:blue">a</text><path d="M880 440 C900 440 880 740 900 740" style="fill:transparent;stroke:black" /><text x="910" y="740" font-size="8" style="fill:black">href: Adaptaciones.html</text><text x="910" y="750" font-size="8" style="fill:black">tabindex: 7</text><text x="910" y="760" font-size="8" style="fill:black">accesskey: A</text><rect x="966" y="720" width="137" height="40" style="fill:green;stroke:black;stroke-width:1" /><text x="976" y="730" font-size="8" style="fill:white">Adaptaciones</text><rect x="900" y="770" width="200" height="40" style="fill:white;stroke:black;stroke-width:1" /><text x="910" y="780" font-size="10" style="fill:blue">a</text><path d="M880 440 C900 440 880 790 900 790" style="fill:transparent;stroke:black" /><text x="910" y="790" font-size="8" style="fill:black">href: MasInformacion.html</text><text x="910" y="800" font-size="8" style="fill:black">tabindex: 8</text><text x="910" y="810" font-size="8" style="fill:black">accesskey: M</text><rect x="966" y="770" width="137" height="40" style="fill:green;stroke:black;stroke-width:1" /><text x="976" y="780" font-size="8" style="fill:white">Más información</text><rect x="680" y="870" width="200" height="40" style="fill:white;stroke:black;stroke-width:1" /><text x="690" y="880" font-size="10" style="fill:blue">dl</text><path d="M660 390 C680 390 660 890 680 890" style="fill:transparent;stroke:black" /><rect x="900" y="870" width="200" height="40" style="fill:white;stroke:black;stroke-width:1" /><text x="910" y="880" font-size="10" style="fill:blue">dt</text><path d="M880 890 C900 890 880 890 900 890" style="fill:transparent;stroke:black" /><rect x="1120" y="870" width="200" height="40" style="fill:white;stroke:black;stroke-width:1" /><text x="1130" y="880" font-size="10" style="fill:blue">strong</text><path d="M1100 890 C1120 890 1100 890 1120 890" style="fill:transparent;stroke:black" /><rect x="1186" y="870" width="137" height="40" style="fill:green;stroke:black;stroke-width:1" /><text x="1196" y="880" font-size="8" style="fill:white">Denerys Targaryen</text><rect x="900" y="970" width="200" height="40" style="fill:white;stroke:black;stroke-width:1" /><text x="910" y="980" font-size="10" style="fill:blue">dd</text><path d="M880 890 C900 890 880 990 900 990" style="fill:transparent;stroke:black" /><rect x="966" y="970" width="137" height="40" style="fill:green;stroke:black;stroke-width:1" /><text x="976" y="980" font-size="8" style="fill:white">Última hija viva del rey Aerys II Targaryen y su hermana-esposa, la reina Rhaella. Luego de la Guerra del Usurpador, durante la que murieron sus padres, su hermano mayor Viserys y ella vivieron en el exilio, esperando el momento de volver a Poniente y reclamar el Trono de Hierro.</text><rect x="900" y="1020" width="200" height="40" style="fill:white;stroke:black;stroke-width:1" /><text x="910" y="1030" font-size="10" style="fill:blue">dt</text><path d="M880 890 C900 890 880 1040 900 1040" style="fill:transparent;stroke:black" /><rect x="1120" y="1020" width="200" height="40" style="fill:white;stroke:black;stroke-width:1" /><text x="1130" y="1030" font-size="10" style="fill:blue">strong</text><path d="M1100 1040 C1120 1040 1100 1040 1120 1040" style="fill:transparent;stroke:black" /><rect x="1186" y="1020" width="137" height="40" style="fill:green;stroke:black;stroke-width:1" /><text x="1196" y="1030" font-size="8" style="fill:white">Tyrion Lannister</text><rect x="900" y="1120" width="200" height="40" style="fill:white;stroke:black;stroke-width:1" /><text x="910" y="1130" font-size="10" style="fill:blue">dd</text><path d="M880 890 C900 890 880 1140 900 1140" style="fill:transparent;stroke:black" /><rect x="966" y="1120" width="137" height="40" style="fill:green;stroke:black;stroke-width:1" /><text x="976" y="1130" font-size="8" style="fill:white"> Tercer hijo de Lord Tywin Lannister y Lady Joanna Lannister, y hermano menor de los gemelos Cersei y Jaime. Es apodado el Gnomo y Mediohombre debido a su enanismo. Creció con el estigma de haber "matado" a su madre en el parto; el rechazo de un padre estricto y riguroso por haber nacido "enano", lo llevó a ser un hombre culto, inteligente y amante de los libros; cuando una espada y un escudo no lo defendían en situaciones difíciles, sí lo hacía su elocuencia e inteligencia. Su sarcasmo e ironía lo hacen uno de los personajes más queridos de la saga.</text><rect x="900" y="1170" width="200" height="40" style="fill:white;stroke:black;stroke-width:1" /><text x="910" y="1180" font-size="10" style="fill:blue">dt</text><path d="M880 890 C900 890 880 1190 900 1190" style="fill:transparent;stroke:black" /><rect x="1120" y="1170" width="200" height="40" style="fill:white;stroke:black;stroke-width:1" /><text x="1130" y="1180" font-size="10" style="fill:blue">strong</text><path d="M1100 1190 C1120 1190 1100 1190 1120 1190" style="fill:transparent;stroke:black" /><rect x="1186" y="1170" width="137" height="40" style="fill:green;stroke:black;stroke-width:1" /><text x="1196" y="1180" font-size="8" style="fill:white">Jon Nieve</text><rect x="900" y="1270" width="200" height="40" style="fill:white;stroke:black;stroke-width:1" /><text x="910" y="1280" font-size="10" style="fill:blue">dd</text><path d="M880 890 C900 890 880 1290 900 1290" style="fill:transparent;stroke:black" /><rect x="966" y="1270" width="137" height="40" style="fill:green;stroke:black;stroke-width:1" /><text x="976" y="1280" font-size="8" style="fill:white"> Hijo bastardo de Lord Eddard Stark. Un joven que decide viajar al norte de poniente en el Muro, para así ingresar a la guardia de la noche. Como la mayoría de sus medios hermanos Stark, él puede entrar en la piel de su lobo huargo de color blanco, llamado Fantasma. Su tarea al igual que la de sus hermanos juramentados de la guardia de la noche es proteger al reino de las amenazas que están más allá del muro entre las que se encuentra el "pueblo salvaje" o "pueblo libre" y los Otros, que en su tiempo se consideran inexistentes.</text><rect x="900" y="1320" width="200" height="40" style="fill:white;stroke:black;stroke-width:1" /><text x="910" y="1330" font-size="10" style="fill:blue">dt</text><path d="M880 890 C900 890 880 1340 900 1340" style="fill:transparent;stroke:black" /><rect x="1120" y="1320" width="200" height="40" style="fill:white;stroke:black;stroke-width:1" /><text x="1130" y="1330" font-size="10" style="fill:blue">strong</text><path d="M1100 1340 C1120 1340 1100 1340 1120 1340" style="fill:transparent;stroke:black" /><rect x="1186" y="1320" width="137" height="40" style="fill:green;stroke:black;stroke-width:1" /><text x="1196" y="1330" font-size="8" style="fill:white">Cersei Lannister</text><rect x="900" y="1420" width="200" height="40" style="fill:white;stroke:black;stroke-width:1" /><text x="910" y="1430" font-size="10" style="fill:blue">dd</text><path d="M880 890 C900 890 880 1440 900 1440" style="fill:transparent;stroke:black" /><rect x="966" y="1420" width="137" height="40" style="fill:green;stroke:black;stroke-width:1" /><text x="976" y="1430" font-size="8" style="fill:white"> Reina y ahora viuda del Rey Robert Baratheon (el "Usurpador"); Tiene una relación incestuosa con su hermano Jaime Lannister quien es el padre biológico de sus tres hijos: Joffrey, Tommen y Myrcella. Con una belleza legendaria, es uno de los personajes más despiadados de la saga y suele atribuir todas sus fechorías a su "sangre de León" y al bienestar de sus hijos.</text><rect x="900" y="1470" width="200" height="40" style="fill:white;stroke:black;stroke-width:1" /><text x="910" y="1480" font-size="10" style="fill:blue">dt</text><path d="M880 890 C900 890 880 1490 900 1490" style="fill:transparent;stroke:black" /><rect x="1120" y="1470" width="200" height="40" style="fill:white;stroke:black;stroke-width:1" /><text x="1130" y="1480" font-size="10" style="fill:blue">strong</text><path d="M1100 1490 C1120 1490 1100 1490 1120 1490" style="fill:transparent;stroke:black" /><rect x="1186" y="1470" width="137" height="40" style="fill:green;stroke:black;stroke-width:1" /><text x="1196" y="1480" font-size="8" style="fill:white">Sansa Stark</text><rect x="900" y="1570" width="200" height="40" style="fill:white;stroke:black;stroke-width:1" /><text x="910" y="1580" font-size="10" style="fill:blue">dd</text><path d="M880 890 C900 890 880 1590 900 1590" style="fill:transparent;stroke:black" /><rect x="966" y="1570" width="137" height="40" style="fill:green;stroke:black;stroke-width:1" /><text x="976" y="1580" font-size="8" style="fill:white"> Primera hija de Lord Eddard Stark y Lady Catelyn Tully. Tiene tres hermanos, Robb, Bran y Rickon, y una hermana menor, llamada Arya; además de un medio hermano bastardo, Jon Nieve. Se la describe como hermosa, con pelo castaño rojizo y ojos azules. Ha recibido la educación propia de una dama de alta cuna y siempre se comporta como tal. A menudo choca con Arya, totalmente opuesta en carácter e intereses a su hermana mayor, y también mantiene una relación distante con Jon Nieve. Su loba huargo se llamó Dama, aunque fue sacrificada por Lord Stark bajo las órdenes del rey Robert Baratheon después de que la reina Cersei Lannister se enfureciera porque la loba de Arya, Nymeria, atacara al príncipe Joffrey; considerando que los lobos huargos son demasiado peligrosos.</text><rect x="900" y="1620" width="200" height="40" style="fill:white;stroke:black;stroke-width:1" /><text x="910" y="1630" font-size="10" style="fill:blue">dt</text><path d="M880 890 C900 890 880 1640 900 1640" style="fill:transparent;stroke:black" /><rect x="1120" y="1620" width="200" height="40" style="fill:white;stroke:black;stroke-width:1" /><text x="1130" y="1630" font-size="10" style="fill:blue">strong</text><path d="M1100 1640 C1120 1640 1100 1640 1120 1640" style="fill:transparent;stroke:black" /><rect x="1186" y="1620" width="137" height="40" style="fill:green;stroke:black;stroke-width:1" /><text x="1196" y="1630" font-size="8" style="fill:white">Arya Stark</text><rect x="900" y="1720" width="200" height="40" style="fill:white;stroke:black;stroke-width:1" /><text x="910" y="1730" font-size="10" style="fill:blue">dd</text><path d="M880 890 C900 890 880 1740 900 1740" style="fill:transparent;stroke:black" /><rect x="966" y="1720" width="137" height="40" style="fill:green;stroke:black;stroke-width:1" /><text x="976" y="1730" font-size="8" style="fill:white"> Segunda hija de Lord Eddard Stark y Lady Catelyn Tully. Tiene una hermana, Sansa; tres hermanos, Robb, Bran y Rickon, y un medio-hermano bastardo, Jon Nieve, al que aprecia mucho. Como algunos de sus hermanos, ella es una cambiapieles, pudiendo entrar en la piel de su loba huargo, Nymeria, nombrada en referencia a la reina guerrera de los Rhoynar.</text><rect x="900" y="1770" width="200" height="40" style="fill:white;stroke:black;stroke-width:1" /><text x="910" y="1780" font-size="10" style="fill:blue">dt</text><path d="M880 890 C900 890 880 1790 900 1790" style="fill:transparent;stroke:black" /><rect x="1120" y="1770" width="200" height="40" style="fill:white;stroke:black;stroke-width:1" /><text x="1130" y="1780" font-size="10" style="fill:blue">strong</text><path d="M1100 1790 C1120 1790 1100 1790 1120 1790" style="fill:transparent;stroke:black" /><rect x="1186" y="1770" width="137" height="40" style="fill:green;stroke:black;stroke-width:1" /><text x="1196" y="1780" font-size="8" style="fill:white">Bran Stark</text><rect x="900" y="1870" width="200" height="40" style="fill:white;stroke:black;stroke-width:1" /><text x="910" y="1880" font-size="10" style="fill:blue">dd</text><path d="M880 890 C900 890 880 1890 900 1890" style="fill:transparent;stroke:black" /><rect x="966" y="1870" width="137" height="40" style="fill:green;stroke:black;stroke-width:1" /><text x="976" y="1880" font-size="8" style="fill:white"> Es el segundo hijo y heredero de Lord Eddard Stark y Lady Catelyn Tully. Tiene dos hermanas, Sansa y Arya; dos hermanos, Robb y Rickon, y un medio-hermano bastardo, Jon Nieve. Tras sufrir una caída de una torre a manos de Jaime Lannister, Bran queda paralitico y comienza a experimentar visiones y extraños sueños que le guiarán en un viaje hacia el norte para encontrar al "cuervo de tres ojos". Siempre acompañado de su lobo huargo Verano.</text><rect x="460" y="2020" width="200" height="40" style="fill:white;stroke:black;stroke-width:1" /><text x="470" y="2030" font-size="10" style="fill:blue">footer</text><path d="M440 390 C460 390 440 2040 460 2040" style="fill:transparent;stroke:black" /><rect x="680" y="2020" width="200" height="40" style="fill:white;stroke:black;stroke-width:1" /><text x="690" y="2030" font-size="10" style="fill:blue">a</text><path d="M660 2040 C680 2040 660 2040 680 2040" style="fill:transparent;stroke:black" /><text x="690" y="2040" font-size="8" style="fill:black">href: https://validator.w3.org/check?uri=referer</text><rect x="900" y="2020" width="200" height="40" style="fill:white;stroke:black;stroke-width:1" /><text x="910" y="2030" font-size="10" style="fill:blue">img</text><path d="M880 2040 C900 2040 880 2040 900 2040" style="fill:transparent;stroke:black" /><text x="910" y="2040" font-size="8" style="fill:black">src: https://www.w3.org/html/logo/badge/html5-badge-h-solo.png</text><text x="910" y="2050" font-size="8" style="fill:black">alt: HTML5 Válido!</text><text x="910" y="2060" font-size="8" style="fill:black">height: 64</text><text x="910" y="2070" font-size="8" style="fill:black">width: 63</text><rect x="680" y="2120" width="200" height="40" style="fill:white;stroke:black;stroke-width:1" /><text x="690" y="2130" font-size="10" style="fill:blue">a</text><path d="M660 2040 C680 2040 660 2140 680 2140" style="fill:transparent;stroke:black" /><text x="690" y="2140" font-size="8" style="fill:black">href: http://jigsaw.w3.org/css-validator/check/referer</text><rect x="900" y="2120" width="200" height="40" style="fill:white;stroke:black;stroke-width:1" /><text x="910" y="2130" font-size="10" style="fill:blue">img</text><path d="M880 2140 C900 2140 880 2140 900 2140" style="fill:transparent;stroke:black" /><text x="910" y="2140" font-size="8" style="fill:black">style: border:0;width:88px;height:31px</text><text x="910" y="2150" font-size="8" style="fill:black">src: http://jigsaw.w3.org/css-validator/images/vcss</text><text x="910" y="2160" font-size="8" style="fill:black">alt: ¡CSS Válido!</text></svg>