<?xml version="1.0" encoding="utf-8"?><svg width="auto" height="2170" style="overflow:visible " version="1.1" xmlns="http://www.w3.org/2000/svg"><rect x="20" y="20" width="200" height="40" style="fill:white;stroke:black;stroke-width:1" /><text x="30" y="30" font-size="10" style="fill:blue">xsl:stylesheet</text><text x="30" y="40" font-size="8" style="fill:black">version: 1.0</text><text x="30" y="50" font-size="8" style="fill:black">xmlns:xsl: http://www.w3.org/1999/XSL/Transform</text><rect x="240" y="20" width="200" height="40" style="fill:white;stroke:black;stroke-width:1" /><text x="250" y="30" font-size="10" style="fill:blue">xsl:output</text><path d="M220 40 C240 40 220 40 240 40" style="fill:transparent;stroke:black" /><text x="250" y="40" font-size="8" style="fill:black">method: html</text><rect x="240" y="70" width="200" height="40" style="fill:white;stroke:black;stroke-width:1" /><text x="250" y="80" font-size="10" style="fill:blue">xsl:template</text><path d="M220 40 C240 40 220 90 240 90" style="fill:transparent;stroke:black" /><text x="250" y="90" font-size="8" style="fill:black">match: recetas</text><rect x="460" y="70" width="200" height="40" style="fill:white;stroke:black;stroke-width:1" /><text x="470" y="80" font-size="10" style="fill:blue">html</text><path d="M440 90 C460 90 440 90 460 90" style="fill:transparent;stroke:black" /><rect x="680" y="70" width="200" height="40" style="fill:white;stroke:black;stroke-width:1" /><text x="690" y="80" font-size="10" style="fill:blue">head</text><path d="M660 90 C680 90 660 90 680 90" style="fill:transparent;stroke:black" /><rect x="900" y="70" width="200" height="40" style="fill:white;stroke:black;stroke-width:1" /><text x="910" y="80" font-size="10" style="fill:blue">title</text><path d="M880 90 C900 90 880 90 900 90" style="fill:transparent;stroke:black" /><rect x="966" y="70" width="137" height="40" style="fill:green;stroke:black;stroke-width:1" /><text x="976" y="80" font-size="8" style="fill:white">Ejercicio 2 - Tarea 1</text><rect x="900" y="120" width="200" height="40" style="fill:white;stroke:black;stroke-width:1" /><text x="910" y="130" font-size="10" style="fill:blue">h1</text><path d="M880 90 C900 90 880 140 900 140" style="fill:transparent;stroke:black" /><rect x="966" y="120" width="137" height="40" style="fill:green;stroke:black;stroke-width:1" /><text x="976" y="130" font-size="8" style="fill:white">Todas las recetas</text><rect x="900" y="170" width="200" height="40" style="fill:white;stroke:black;stroke-width:1" /><text x="910" y="180" font-size="10" style="fill:blue">link</text><path d="M880 90 C900 90 880 190 900 190" style="fill:transparent;stroke:black" /><text x="910" y="190" font-size="8" style="fill:black">rel: stylesheet</text><text x="910" y="200" font-size="8" style="fill:black">type: text/css</text><text x="910" y="210" font-size="8" style="fill:black">href: Recetas.css</text><rect x="680" y="270" width="200" height="40" style="fill:white;stroke:black;stroke-width:1" /><text x="690" y="280" font-size="10" style="fill:blue">body</text><path d="M660 90 C680 90 660 290 680 290" style="fill:transparent;stroke:black" /><rect x="900" y="270" width="200" height="40" style="fill:white;stroke:black;stroke-width:1" /><text x="910" y="280" font-size="10" style="fill:blue">xsl:for-each</text><path d="M880 290 C900 290 880 290 900 290" style="fill:transparent;stroke:black" /><text x="910" y="290" font-size="8" style="fill:black">select: receta</text><rect x="1120" y="270" width="200" height="40" style="fill:white;stroke:black;stroke-width:1" /><text x="1130" y="280" font-size="10" style="fill:blue">h2</text><path d="M1100 290 C1120 290 1100 290 1120 290" style="fill:transparent;stroke:black" /><rect x="1340" y="270" width="200" height="40" style="fill:white;stroke:black;stroke-width:1" /><text x="1350" y="280" font-size="10" style="fill:blue">xsl:value-of</text><path d="M1320 290 C1340 290 1320 290 1340 290" style="fill:transparent;stroke:black" /><text x="1350" y="290" font-size="8" style="fill:black">select: nombre</text><rect x="1120" y="370" width="200" height="40" style="fill:white;stroke:black;stroke-width:1" /><text x="1130" y="380" font-size="10" style="fill:blue">p</text><path d="M1100 290 C1120 290 1100 390 1120 390" style="fill:transparent;stroke:black" /><rect x="1340" y="370" width="200" height="40" style="fill:white;stroke:black;stroke-width:1" /><text x="1350" y="380" font-size="10" style="fill:blue">xsl:value-of</text><path d="M1320 390 C1340 390 1320 390 1340 390" style="fill:transparent;stroke:black" /><text x="1350" y="390" font-size="8" style="fill:black">select: tipo/@plato</text><rect x="1120" y="470" width="200" height="40" style="fill:white;stroke:black;stroke-width:1" /><text x="1130" y="480" font-size="10" style="fill:blue">p</text><path d="M1100 290 C1120 290 1100 490 1120 490" style="fill:transparent;stroke:black" /><rect x="1186" y="470" width="137" height="40" style="fill:green;stroke:black;stroke-width:1" /><text x="1196" y="480" font-size="8" style="fill:white">INGREDIENTES:</text><rect x="1120" y="520" width="200" height="40" style="fill:white;stroke:black;stroke-width:1" /><text x="1130" y="530" font-size="10" style="fill:blue">ul</text><path d="M1100 290 C1120 290 1100 540 1120 540" style="fill:transparent;stroke:black" /><rect x="1340" y="520" width="200" height="40" style="fill:white;stroke:black;stroke-width:1" /><text x="1350" y="530" font-size="10" style="fill:blue">xsl:for-each</text><path d="M1320 540 C1340 540 1320 540 1340 540" style="fill:transparent;stroke:black" /><text x="1350" y="540" font-size="8" style="fill:black">select: ingredientes</text><rect x="1560" y="520" width="200" height="40" style="fill:white;stroke:black;stroke-width:1" /><text x="1570" y="530" font-size="10" style="fill:blue">xsl:for-each</text><path d="M1540 540 C1560 540 1540 540 1560 540" style="fill:transparent;stroke:black" /><text x="1570" y="540" font-size="8" style="fill:black">select: ingrediente</text><rect x="1780" y="520" width="200" height="40" style="fill:white;stroke:black;stroke-width:1" /><text x="1790" y="530" font-size="10" style="fill:blue">li</text><path d="M1760 540 C1780 540 1760 540 1780 540" style="fill:transparent;stroke:black" /><rect x="2000" y="520" width="200" height="40" style="fill:white;stroke:black;stroke-width:1" /><text x="2010" y="530" font-size="10" style="fill:blue">xsl:value-of</text><path d="M1980 540 C2000 540 1980 540 2000 540" style="fill:transparent;stroke:black" /><text x="2010" y="540" font-size="8" style="fill:black">select: @cantidad</text><rect x="1846" y="570" width="137" height="40" style="fill:green;stroke:black;stroke-width:1" /><text x="1856" y="580" font-size="8" style="fill:white"> </text><rect x="2000" y="570" width="200" height="40" style="fill:white;stroke:black;stroke-width:1" /><text x="2010" y="580" font-size="10" style="fill:blue">xsl:value-of</text><path d="M1980 540 C2000 540 1980 590 2000 590" style="fill:transparent;stroke:black" /><text x="2010" y="590" font-size="8" style="fill:black">select: @medida</text><rect x="1846" y="620" width="137" height="40" style="fill:green;stroke:black;stroke-width:1" /><text x="1856" y="630" font-size="8" style="fill:white"> de </text><rect x="2000" y="620" width="200" height="40" style="fill:white;stroke:black;stroke-width:1" /><text x="2010" y="630" font-size="10" style="fill:blue">xsl:value-of</text><path d="M1980 540 C2000 540 1980 640 2000 640" style="fill:transparent;stroke:black" /><text x="2010" y="640" font-size="8" style="fill:black">select: @nombre</text><rect x="1120" y="870" width="200" height="40" style="fill:white;stroke:black;stroke-width:1" /><text x="1130" y="880" font-size="10" style="fill:blue">p</text><path d="M1100 290 C1120 290 1100 890 1120 890" style="fill:transparent;stroke:black" /><rect x="1340" y="870" width="200" height="40" style="fill:white;stroke:black;stroke-width:1" /><text x="1350" y="880" font-size="10" style="fill:blue">xsl:value-of</text><path d="M1320 890 C1340 890 1320 890 1340 890" style="fill:transparent;stroke:black" /><text x="1350" y="890" font-size="8" style="fill:black">select: calorias/@kcal</text><rect x="1186" y="920" width="137" height="40" style="fill:green;stroke:black;stroke-width:1" /><text x="1196" y="930" font-size="8" style="fill:white"> kcal</text><rect x="1120" y="970" width="200" height="40" style="fill:white;stroke:black;stroke-width:1" /><text x="1130" y="980" font-size="10" style="fill:blue">p</text><path d="M1100 290 C1120 290 1100 990 1120 990" style="fill:transparent;stroke:black" /><rect x="1186" y="970" width="137" height="40" style="fill:green;stroke:black;stroke-width:1" /><text x="1196" y="980" font-size="8" style="fill:white">ELABORACIÓN:</text><rect x="1120" y="1020" width="200" height="40" style="fill:white;stroke:black;stroke-width:1" /><text x="1130" y="1030" font-size="10" style="fill:blue">ul</text><path d="M1100 290 C1120 290 1100 1040 1120 1040" style="fill:transparent;stroke:black" /><rect x="1340" y="1020" width="200" height="40" style="fill:white;stroke:black;stroke-width:1" /><text x="1350" y="1030" font-size="10" style="fill:blue">xsl:for-each</text><path d="M1320 1040 C1340 1040 1320 1040 1340 1040" style="fill:transparent;stroke:black" /><text x="1350" y="1040" font-size="8" style="fill:black">select: pasos</text><rect x="1560" y="1020" width="200" height="40" style="fill:white;stroke:black;stroke-width:1" /><text x="1570" y="1030" font-size="10" style="fill:blue">xsl:for-each</text><path d="M1540 1040 C1560 1040 1540 1040 1560 1040" style="fill:transparent;stroke:black" /><text x="1570" y="1040" font-size="8" style="fill:black">select: paso</text><rect x="1780" y="1020" width="200" height="40" style="fill:white;stroke:black;stroke-width:1" /><text x="1790" y="1030" font-size="10" style="fill:blue">li</text><path d="M1760 1040 C1780 1040 1760 1040 1780 1040" style="fill:transparent;stroke:black" /><rect x="1846" y="1020" width="137" height="40" style="fill:green;stroke:black;stroke-width:1" /><text x="1856" y="1030" font-size="8" style="fill:white">Paso: </text><rect x="2000" y="1020" width="200" height="40" style="fill:white;stroke:black;stroke-width:1" /><text x="2010" y="1030" font-size="10" style="fill:blue">xsl:value-of</text><path d="M1980 1040 C2000 1040 1980 1040 2000 1040" style="fill:transparent;stroke:black" /><text x="2010" y="1040" font-size="8" style="fill:black">select: @numero</text><rect x="1846" y="1070" width="137" height="40" style="fill:green;stroke:black;stroke-width:1" /><text x="1856" y="1080" font-size="8" style="fill:white">. </text><rect x="2000" y="1070" width="200" height="40" style="fill:white;stroke:black;stroke-width:1" /><text x="2010" y="1080" font-size="10" style="fill:blue">xsl:value-of</text><path d="M1980 1040 C2000 1040 1980 1090 2000 1090" style="fill:transparent;stroke:black" /><text x="2010" y="1090" font-size="8" style="fill:black">select: @descripcion</text><rect x="1120" y="1320" width="200" height="40" style="fill:white;stroke:black;stroke-width:1" /><text x="1130" y="1330" font-size="10" style="fill:blue">p</text><path d="M1100 290 C1120 290 1100 1340 1120 1340" style="fill:transparent;stroke:black" /><rect x="1186" y="1320" width="137" height="40" style="fill:green;stroke:black;stroke-width:1" /><text x="1196" y="1330" font-size="8" style="fill:white">Gardo de dificultad: grado </text><rect x="1340" y="1320" width="200" height="40" style="fill:white;stroke:black;stroke-width:1" /><text x="1350" y="1330" font-size="10" style="fill:blue">xsl:value-of</text><path d="M1320 1340 C1340 1340 1320 1340 1340 1340" style="fill:transparent;stroke:black" /><text x="1350" y="1340" font-size="8" style="fill:black">select: dificultad/@grado</text><rect x="1186" y="1370" width="137" height="40" style="fill:green;stroke:black;stroke-width:1" /><text x="1196" y="1380" font-size="8" style="fill:white">.</text><rect x="1120" y="1420" width="200" height="40" style="fill:white;stroke:black;stroke-width:1" /><text x="1130" y="1430" font-size="10" style="fill:blue">p</text><path d="M1100 290 C1120 290 1100 1440 1120 1440" style="fill:transparent;stroke:black" /><rect x="1186" y="1420" width="137" height="40" style="fill:green;stroke:black;stroke-width:1" /><text x="1196" y="1430" font-size="8" style="fill:white">Tiempo: </text><rect x="1340" y="1420" width="200" height="40" style="fill:white;stroke:black;stroke-width:1" /><text x="1350" y="1430" font-size="10" style="fill:blue">xsl:value-of</text><path d="M1320 1440 C1340 1440 1320 1440 1340 1440" style="fill:transparent;stroke:black" /><text x="1350" y="1440" font-size="8" style="fill:black">select: tiempo/@minutos</text><rect x="1186" y="1470" width="137" height="40" style="fill:green;stroke:black;stroke-width:1" /><text x="1196" y="1480" font-size="8" style="fill:white"> minutos.  
</text><rect x="1120" y="1520" width="200" height="40" style="fill:white;stroke:black;stroke-width:1" /><text x="1130" y="1530" font-size="10" style="fill:blue">p</text><path d="M1100 290 C1120 290 1100 1540 1120 1540" style="fill:transparent;stroke:black" /><rect x="1186" y="1520" width="137" height="40" style="fill:green;stroke:black;stroke-width:1" /><text x="1196" y="1530" font-size="8" style="fill:white">ELEMENTOS NECESARIOS:</text><rect x="1120" y="1570" width="200" height="40" style="fill:white;stroke:black;stroke-width:1" /><text x="1130" y="1580" font-size="10" style="fill:blue">ul</text><path d="M1100 290 C1120 290 1100 1590 1120 1590" style="fill:transparent;stroke:black" /><rect x="1340" y="1570" width="200" height="40" style="fill:white;stroke:black;stroke-width:1" /><text x="1350" y="1580" font-size="10" style="fill:blue">xsl:for-each</text><path d="M1320 1590 C1340 1590 1320 1590 1340 1590" style="fill:transparent;stroke:black" /><text x="1350" y="1590" font-size="8" style="fill:black">select: elementos</text><rect x="1560" y="1570" width="200" height="40" style="fill:white;stroke:black;stroke-width:1" /><text x="1570" y="1580" font-size="10" style="fill:blue">xsl:for-each</text><path d="M1540 1590 C1560 1590 1540 1590 1560 1590" style="fill:transparent;stroke:black" /><text x="1570" y="1590" font-size="8" style="fill:black">select: elemento</text><rect x="1780" y="1570" width="200" height="40" style="fill:white;stroke:black;stroke-width:1" /><text x="1790" y="1580" font-size="10" style="fill:blue">li</text><path d="M1760 1590 C1780 1590 1760 1590 1780 1590" style="fill:transparent;stroke:black" /><rect x="1846" y="1570" width="137" height="40" style="fill:green;stroke:black;stroke-width:1" /><text x="1856" y="1580" font-size="8" style="fill:white">Elemento: </text><rect x="2000" y="1570" width="200" height="40" style="fill:white;stroke:black;stroke-width:1" /><text x="2010" y="1580" font-size="10" style="fill:blue">xsl:value-of</text><path d="M1980 1590 C2000 1590 1980 1590 2000 1590" style="fill:transparent;stroke:black" /><text x="2010" y="1590" font-size="8" style="fill:black">select: @nombre</text><rect x="1846" y="1620" width="137" height="40" style="fill:green;stroke:black;stroke-width:1" /><text x="1856" y="1630" font-size="8" style="fill:white">.</text><rect x="1120" y="1820" width="200" height="40" style="fill:white;stroke:black;stroke-width:1" /><text x="1130" y="1830" font-size="10" style="fill:blue">p</text><path d="M1100 290 C1120 290 1100 1840 1120 1840" style="fill:transparent;stroke:black" /><rect x="1186" y="1820" width="137" height="40" style="fill:green;stroke:black;stroke-width:1" /><text x="1196" y="1830" font-size="8" style="fill:white">Origen: </text><rect x="1340" y="1820" width="200" height="40" style="fill:white;stroke:black;stroke-width:1" /><text x="1350" y="1830" font-size="10" style="fill:blue">xsl:value-of</text><path d="M1320 1840 C1340 1840 1320 1840 1340 1840" style="fill:transparent;stroke:black" /><text x="1350" y="1840" font-size="8" style="fill:black">select: origen</text></svg>