<?xml version="1.0" encoding="utf-8"?><svg width="auto" height="1570" style="overflow:visible " version="1.1" xmlns="http://www.w3.org/2000/svg"><rect x="20" y="20" width="200" height="40" style="fill:white;stroke:black;stroke-width:1" /><text x="30" y="30" font-size="10" style="fill:blue">xsl:stylesheet</text><text x="30" y="40" font-size="8" style="fill:black">version: 1.0</text><text x="30" y="50" font-size="8" style="fill:black">xmlns:xsl: http://www.w3.org/1999/XSL/Transform</text><rect x="240" y="20" width="200" height="40" style="fill:white;stroke:black;stroke-width:1" /><text x="250" y="30" font-size="10" style="fill:blue">xsl:output</text><path d="M220 40 C240 40 220 40 240 40" style="fill:transparent;stroke:black" /><text x="250" y="40" font-size="8" style="fill:black">method: html</text><rect x="240" y="70" width="200" height="40" style="fill:white;stroke:black;stroke-width:1" /><text x="250" y="80" font-size="10" style="fill:blue">xsl:template</text><path d="M220 40 C240 40 220 90 240 90" style="fill:transparent;stroke:black" /><text x="250" y="90" font-size="8" style="fill:black">match: articulos</text><rect x="460" y="70" width="200" height="40" style="fill:white;stroke:black;stroke-width:1" /><text x="470" y="80" font-size="10" style="fill:blue">html</text><path d="M440 90 C460 90 440 90 460 90" style="fill:transparent;stroke:black" /><rect x="680" y="70" width="200" height="40" style="fill:white;stroke:black;stroke-width:1" /><text x="690" y="80" font-size="10" style="fill:blue">head</text><path d="M660 90 C680 90 660 90 680 90" style="fill:transparent;stroke:black" /><rect x="900" y="70" width="200" height="40" style="fill:white;stroke:black;stroke-width:1" /><text x="910" y="80" font-size="10" style="fill:blue">title</text><path d="M880 90 C900 90 880 90 900 90" style="fill:transparent;stroke:black" /><rect x="966" y="70" width="137" height="40" style="fill:green;stroke:black;stroke-width:1" /><text x="976" y="80" font-size="8" style="fill:white">Artículos</text><rect x="900" y="120" width="200" height="40" style="fill:white;stroke:black;stroke-width:1" /><text x="910" y="130" font-size="10" style="fill:blue">h1</text><path d="M880 90 C900 90 880 140 900 140" style="fill:transparent;stroke:black" /><rect x="966" y="120" width="137" height="40" style="fill:green;stroke:black;stroke-width:1" /><text x="976" y="130" font-size="8" style="fill:white">Todos los artículos</text><rect x="900" y="170" width="200" height="40" style="fill:white;stroke:black;stroke-width:1" /><text x="910" y="180" font-size="10" style="fill:blue">link</text><path d="M880 90 C900 90 880 190 900 190" style="fill:transparent;stroke:black" /><text x="910" y="190" font-size="8" style="fill:black">rel: stylesheet</text><text x="910" y="200" font-size="8" style="fill:black">type: text/css</text><text x="910" y="210" font-size="8" style="fill:black">href: Revista.css</text><rect x="680" y="270" width="200" height="40" style="fill:white;stroke:black;stroke-width:1" /><text x="690" y="280" font-size="10" style="fill:blue">body</text><path d="M660 90 C680 90 660 290 680 290" style="fill:transparent;stroke:black" /><rect x="900" y="270" width="200" height="40" style="fill:white;stroke:black;stroke-width:1" /><text x="910" y="280" font-size="10" style="fill:blue">xsl:for-each</text><path d="M880 290 C900 290 880 290 900 290" style="fill:transparent;stroke:black" /><text x="910" y="290" font-size="8" style="fill:black">select: articulo</text><rect x="1120" y="270" width="200" height="40" style="fill:white;stroke:black;stroke-width:1" /><text x="1130" y="280" font-size="10" style="fill:blue">h2</text><path d="M1100 290 C1120 290 1100 290 1120 290" style="fill:transparent;stroke:black" /><rect x="1340" y="270" width="200" height="40" style="fill:white;stroke:black;stroke-width:1" /><text x="1350" y="280" font-size="10" style="fill:blue">xsl:value-of</text><path d="M1320 290 C1340 290 1320 290 1340 290" style="fill:transparent;stroke:black" /><text x="1350" y="290" font-size="8" style="fill:black">select: titulo</text><rect x="1120" y="370" width="200" height="40" style="fill:white;stroke:black;stroke-width:1" /><text x="1130" y="380" font-size="10" style="fill:blue">p</text><path d="M1100 290 C1120 290 1100 390 1120 390" style="fill:transparent;stroke:black" /><rect x="1340" y="370" width="200" height="40" style="fill:white;stroke:black;stroke-width:1" /><text x="1350" y="380" font-size="10" style="fill:blue">xsl:value-of</text><path d="M1320 390 C1340 390 1320 390 1340 390" style="fill:transparent;stroke:black" /><text x="1350" y="390" font-size="8" style="fill:black">select: autor/@nombre</text><rect x="1186" y="420" width="137" height="40" style="fill:green;stroke:black;stroke-width:1" /><text x="1196" y="430" font-size="8" style="fill:white"> </text><rect x="1340" y="420" width="200" height="40" style="fill:white;stroke:black;stroke-width:1" /><text x="1350" y="430" font-size="10" style="fill:blue">xsl:value-of</text><path d="M1320 390 C1340 390 1320 440 1340 440" style="fill:transparent;stroke:black" /><text x="1350" y="440" font-size="8" style="fill:black">select: autor/@apellido</text><rect x="1120" y="520" width="200" height="40" style="fill:white;stroke:black;stroke-width:1" /><text x="1130" y="530" font-size="10" style="fill:blue">p</text><path d="M1100 290 C1120 290 1100 540 1120 540" style="fill:transparent;stroke:black" /><rect x="1340" y="520" width="200" height="40" style="fill:white;stroke:black;stroke-width:1" /><text x="1350" y="530" font-size="10" style="fill:blue">xsl:value-of</text><path d="M1320 540 C1340 540 1320 540 1340 540" style="fill:transparent;stroke:black" /><text x="1350" y="540" font-size="8" style="fill:black">select: autor/@correo</text><rect x="1120" y="620" width="200" height="40" style="fill:white;stroke:black;stroke-width:1" /><text x="1130" y="630" font-size="10" style="fill:blue">p</text><path d="M1100 290 C1120 290 1100 640 1120 640" style="fill:transparent;stroke:black" /><rect x="1340" y="620" width="200" height="40" style="fill:white;stroke:black;stroke-width:1" /><text x="1350" y="630" font-size="10" style="fill:blue">xsl:value-of</text><path d="M1320 640 C1340 640 1320 640 1340 640" style="fill:transparent;stroke:black" /><text x="1350" y="640" font-size="8" style="fill:black">select: resumen</text><rect x="1120" y="720" width="200" height="40" style="fill:white;stroke:black;stroke-width:1" /><text x="1130" y="730" font-size="10" style="fill:blue">p</text><path d="M1100 290 C1120 290 1100 740 1120 740" style="fill:transparent;stroke:black" /><rect x="1186" y="720" width="137" height="40" style="fill:green;stroke:black;stroke-width:1" /><text x="1196" y="730" font-size="8" style="fill:white">Páginas artículo: </text><rect x="1340" y="720" width="200" height="40" style="fill:white;stroke:black;stroke-width:1" /><text x="1350" y="730" font-size="10" style="fill:blue">xsl:value-of</text><path d="M1320 740 C1340 740 1320 740 1340 740" style="fill:transparent;stroke:black" /><text x="1350" y="740" font-size="8" style="fill:black">select: paginas/pagina_inicio</text><rect x="1186" y="770" width="137" height="40" style="fill:green;stroke:black;stroke-width:1" /><text x="1196" y="780" font-size="8" style="fill:white"> -
</text><rect x="1340" y="770" width="200" height="40" style="fill:white;stroke:black;stroke-width:1" /><text x="1350" y="780" font-size="10" style="fill:blue">xsl:value-of</text><path d="M1320 740 C1340 740 1320 790 1340 790" style="fill:transparent;stroke:black" /><text x="1350" y="790" font-size="8" style="fill:black">select: paginas/pagina_final</text><rect x="1120" y="870" width="200" height="40" style="fill:white;stroke:black;stroke-width:1" /><text x="1130" y="880" font-size="10" style="fill:blue">p</text><path d="M1100 290 C1120 290 1100 890 1120 890" style="fill:transparent;stroke:black" /><rect x="1186" y="870" width="137" height="40" style="fill:green;stroke:black;stroke-width:1" /><text x="1196" y="880" font-size="8" style="fill:white">Año: </text><rect x="1340" y="870" width="200" height="40" style="fill:white;stroke:black;stroke-width:1" /><text x="1350" y="880" font-size="10" style="fill:blue">xsl:value-of</text><path d="M1320 890 C1340 890 1320 890 1340 890" style="fill:transparent;stroke:black" /><text x="1350" y="890" font-size="8" style="fill:black">select: year</text><rect x="1120" y="970" width="200" height="40" style="fill:white;stroke:black;stroke-width:1" /><text x="1130" y="980" font-size="10" style="fill:blue">p</text><path d="M1100 290 C1120 290 1100 990 1120 990" style="fill:transparent;stroke:black" /><rect x="1340" y="970" width="200" height="40" style="fill:white;stroke:black;stroke-width:1" /><text x="1350" y="980" font-size="10" style="fill:blue">xsl:value-of</text><path d="M1320 990 C1340 990 1320 990 1340 990" style="fill:transparent;stroke:black" /><text x="1350" y="990" font-size="8" style="fill:black">select: revista</text><rect x="1186" y="1020" width="137" height="40" style="fill:green;stroke:black;stroke-width:1" /><text x="1196" y="1030" font-size="8" style="fill:white"> Volumen revista número: </text><rect x="1340" y="1020" width="200" height="40" style="fill:white;stroke:black;stroke-width:1" /><text x="1350" y="1030" font-size="10" style="fill:blue">xsl:value-of</text><path d="M1320 990 C1340 990 1320 1040 1340 1040" style="fill:transparent;stroke:black" /><text x="1350" y="1040" font-size="8" style="fill:black">select: volumen</text><rect x="1120" y="1120" width="200" height="40" style="fill:white;stroke:black;stroke-width:1" /><text x="1130" y="1130" font-size="10" style="fill:blue">p</text><path d="M1100 290 C1120 290 1100 1140 1120 1140" style="fill:transparent;stroke:black" /><rect x="1340" y="1120" width="200" height="40" style="fill:white;stroke:black;stroke-width:1" /><text x="1350" y="1130" font-size="10" style="fill:blue">xsl:value-of</text><path d="M1320 1140 C1340 1140 1320 1140 1340 1140" style="fill:transparent;stroke:black" /><text x="1350" y="1140" font-size="8" style="fill:black">select: ee</text><rect x="1120" y="1220" width="200" height="40" style="fill:white;stroke:black;stroke-width:1" /><text x="1130" y="1230" font-size="10" style="fill:blue">p</text><path d="M1100 290 C1120 290 1100 1240 1120 1240" style="fill:transparent;stroke:black" /><rect x="1340" y="1220" width="200" height="40" style="fill:white;stroke:black;stroke-width:1" /><text x="1350" y="1230" font-size="10" style="fill:blue">xsl:value-of</text><path d="M1320 1240 C1340 1240 1320 1240 1340 1240" style="fill:transparent;stroke:black" /><text x="1350" y="1240" font-size="8" style="fill:black">select: keywords</text></svg>