<?xml version="1.0" encoding="utf-8"?><svg width="auto" height="3970" style="overflow:visible " version="1.1" xmlns="http://www.w3.org/2000/svg"><rect x="20" y="20" width="200" height="40" style="fill:white;stroke:black;stroke-width:1" /><text x="30" y="30" font-size="10" style="fill:blue">articulos</text><rect x="240" y="20" width="200" height="40" style="fill:white;stroke:black;stroke-width:1" /><text x="250" y="30" font-size="10" style="fill:blue">articulo</text><path d="M220 40 C240 40 220 40 240 40" style="fill:transparent;stroke:black" /><text x="250" y="40" font-size="8" style="fill:black">mdate: 02/10/2017</text><rect x="460" y="20" width="200" height="40" style="fill:white;stroke:black;stroke-width:1" /><text x="470" y="30" font-size="10" style="fill:blue">autor</text><path d="M440 40 C460 40 440 40 460 40" style="fill:transparent;stroke:black" /><text x="470" y="40" font-size="8" style="fill:black">nombre: Lucía</text><text x="470" y="50" font-size="8" style="fill:black">apellido: Granda</text><text x="470" y="60" font-size="8" style="fill:black">correo: UO251626@uniovi.es</text><rect x="460" y="70" width="200" height="40" style="fill:white;stroke:black;stroke-width:1" /><text x="470" y="80" font-size="10" style="fill:blue">titulo</text><path d="M440 40 C460 40 440 90 460 90" style="fill:transparent;stroke:black" /><rect x="526" y="70" width="137" height="40" style="fill:green;stroke:black;stroke-width:1" /><text x="536" y="80" font-size="8" style="fill:white">LA NUEVA VOGUE </text><rect x="460" y="120" width="200" height="40" style="fill:white;stroke:black;stroke-width:1" /><text x="470" y="130" font-size="10" style="fill:blue">resumen</text><path d="M440 40 C460 40 440 140 460 140" style="fill:transparent;stroke:black" /><rect x="526" y="120" width="137" height="40" style="fill:green;stroke:black;stroke-width:1" /><text x="536" y="130" font-size="8" style="fill:white">Es una artículo que trata las nuevas tendencias en la moda española </text><rect x="460" y="170" width="200" height="40" style="fill:white;stroke:black;stroke-width:1" /><text x="470" y="180" font-size="10" style="fill:blue">paginas</text><path d="M440 40 C460 40 440 190 460 190" style="fill:transparent;stroke:black" /><rect x="680" y="170" width="200" height="40" style="fill:white;stroke:black;stroke-width:1" /><text x="690" y="180" font-size="10" style="fill:blue">pagina_inicio</text><path d="M660 190 C680 190 660 190 680 190" style="fill:transparent;stroke:black" /><rect x="746" y="170" width="137" height="40" style="fill:green;stroke:black;stroke-width:1" /><text x="756" y="180" font-size="8" style="fill:white">1</text><rect x="680" y="220" width="200" height="40" style="fill:white;stroke:black;stroke-width:1" /><text x="690" y="230" font-size="10" style="fill:blue">pagina_final</text><path d="M660 190 C680 190 660 240 680 240" style="fill:transparent;stroke:black" /><rect x="746" y="220" width="137" height="40" style="fill:green;stroke:black;stroke-width:1" /><text x="756" y="230" font-size="8" style="fill:white">10</text><rect x="460" y="320" width="200" height="40" style="fill:white;stroke:black;stroke-width:1" /><text x="470" y="330" font-size="10" style="fill:blue">year</text><path d="M440 40 C460 40 440 340 460 340" style="fill:transparent;stroke:black" /><rect x="526" y="320" width="137" height="40" style="fill:green;stroke:black;stroke-width:1" /><text x="536" y="330" font-size="8" style="fill:white">2012</text><rect x="460" y="370" width="200" height="40" style="fill:white;stroke:black;stroke-width:1" /><text x="470" y="380" font-size="10" style="fill:blue">volumen</text><path d="M440 40 C460 40 440 390 460 390" style="fill:transparent;stroke:black" /><rect x="526" y="370" width="137" height="40" style="fill:green;stroke:black;stroke-width:1" /><text x="536" y="380" font-size="8" style="fill:white">1</text><rect x="460" y="420" width="200" height="40" style="fill:white;stroke:black;stroke-width:1" /><text x="470" y="430" font-size="10" style="fill:blue">revista</text><path d="M440 40 C460 40 440 440 460 440" style="fill:transparent;stroke:black" /><rect x="526" y="420" width="137" height="40" style="fill:green;stroke:black;stroke-width:1" /><text x="536" y="430" font-size="8" style="fill:white">VOGUE ESPAÑA</text><rect x="460" y="470" width="200" height="40" style="fill:white;stroke:black;stroke-width:1" /><text x="470" y="480" font-size="10" style="fill:blue">ee</text><path d="M440 40 C460 40 440 490 460 490" style="fill:transparent;stroke:black" /><rect x="526" y="470" width="137" height="40" style="fill:green;stroke:black;stroke-width:1" /><text x="536" y="480" font-size="8" style="fill:white">http://www.vogue.es/</text><rect x="460" y="520" width="200" height="40" style="fill:white;stroke:black;stroke-width:1" /><text x="470" y="530" font-size="10" style="fill:blue">keywords</text><path d="M440 40 C460 40 440 540 460 540" style="fill:transparent;stroke:black" /><rect x="680" y="520" width="200" height="40" style="fill:white;stroke:black;stroke-width:1" /><text x="690" y="530" font-size="10" style="fill:blue">keyword</text><path d="M660 540 C680 540 660 540 680 540" style="fill:transparent;stroke:black" /><rect x="746" y="520" width="137" height="40" style="fill:green;stroke:black;stroke-width:1" /><text x="756" y="530" font-size="8" style="fill:white">Vogue</text><rect x="680" y="570" width="200" height="40" style="fill:white;stroke:black;stroke-width:1" /><text x="690" y="580" font-size="10" style="fill:blue">keyword</text><path d="M660 540 C680 540 660 590 680 590" style="fill:transparent;stroke:black" /><rect x="746" y="570" width="137" height="40" style="fill:green;stroke:black;stroke-width:1" /><text x="756" y="580" font-size="8" style="fill:white">moda</text><rect x="680" y="620" width="200" height="40" style="fill:white;stroke:black;stroke-width:1" /><text x="690" y="630" font-size="10" style="fill:blue">keyword</text><path d="M660 540 C680 540 660 640 680 640" style="fill:transparent;stroke:black" /><rect x="746" y="620" width="137" height="40" style="fill:green;stroke:black;stroke-width:1" /><text x="756" y="630" font-size="8" style="fill:white">nueva</text><rect x="680" y="670" width="200" height="40" style="fill:white;stroke:black;stroke-width:1" /><text x="690" y="680" font-size="10" style="fill:blue">keyword</text><path d="M660 540 C680 540 660 690 680 690" style="fill:transparent;stroke:black" /><rect x="746" y="670" width="137" height="40" style="fill:green;stroke:black;stroke-width:1" /><text x="756" y="680" font-size="8" style="fill:white">España</text><rect x="680" y="720" width="200" height="40" style="fill:white;stroke:black;stroke-width:1" /><text x="690" y="730" font-size="10" style="fill:blue">keyword</text><path d="M660 540 C680 540 660 740 680 740" style="fill:transparent;stroke:black" /><rect x="746" y="720" width="137" height="40" style="fill:green;stroke:black;stroke-width:1" /><text x="756" y="730" font-size="8" style="fill:white">modelos</text><rect x="680" y="770" width="200" height="40" style="fill:white;stroke:black;stroke-width:1" /><text x="690" y="780" font-size="10" style="fill:blue">keyword</text><path d="M660 540 C680 540 660 790 680 790" style="fill:transparent;stroke:black" /><rect x="746" y="770" width="137" height="40" style="fill:green;stroke:black;stroke-width:1" /><text x="756" y="780" font-size="8" style="fill:white">tendencias</text><rect x="240" y="920" width="200" height="40" style="fill:white;stroke:black;stroke-width:1" /><text x="250" y="930" font-size="10" style="fill:blue">articulo</text><path d="M220 40 C240 40 220 940 240 940" style="fill:transparent;stroke:black" /><text x="250" y="940" font-size="8" style="fill:black">mdate: 02/10/2017</text><rect x="460" y="920" width="200" height="40" style="fill:white;stroke:black;stroke-width:1" /><text x="470" y="930" font-size="10" style="fill:blue">autor</text><path d="M440 940 C460 940 440 940 460 940" style="fill:transparent;stroke:black" /><text x="470" y="940" font-size="8" style="fill:black">nombre: Lili</text><text x="470" y="950" font-size="8" style="fill:black">apellido: Hadit</text><text x="470" y="960" font-size="8" style="fill:black">correo: UO259826@uniovi.es</text><rect x="460" y="970" width="200" height="40" style="fill:white;stroke:black;stroke-width:1" /><text x="470" y="980" font-size="10" style="fill:blue">titulo</text><path d="M440 940 C460 940 440 990 460 990" style="fill:transparent;stroke:black" /><rect x="526" y="970" width="137" height="40" style="fill:green;stroke:black;stroke-width:1" /><text x="536" y="980" font-size="8" style="fill:white">LOS PROS Y CONTRAS DE LA MODA ESPAÑOLA</text><rect x="460" y="1020" width="200" height="40" style="fill:white;stroke:black;stroke-width:1" /><text x="470" y="1030" font-size="10" style="fill:blue">resumen</text><path d="M440 940 C460 940 440 1040 460 1040" style="fill:transparent;stroke:black" /><rect x="526" y="1020" width="137" height="40" style="fill:green;stroke:black;stroke-width:1" /><text x="536" y="1030" font-size="8" style="fill:white">Artículo que trata las modas mas bonitas y las mas feas de la moda española </text><rect x="460" y="1070" width="200" height="40" style="fill:white;stroke:black;stroke-width:1" /><text x="470" y="1080" font-size="10" style="fill:blue">paginas</text><path d="M440 940 C460 940 440 1090 460 1090" style="fill:transparent;stroke:black" /><rect x="680" y="1070" width="200" height="40" style="fill:white;stroke:black;stroke-width:1" /><text x="690" y="1080" font-size="10" style="fill:blue">pagina_inicio</text><path d="M660 1090 C680 1090 660 1090 680 1090" style="fill:transparent;stroke:black" /><rect x="746" y="1070" width="137" height="40" style="fill:green;stroke:black;stroke-width:1" /><text x="756" y="1080" font-size="8" style="fill:white">11</text><rect x="680" y="1120" width="200" height="40" style="fill:white;stroke:black;stroke-width:1" /><text x="690" y="1130" font-size="10" style="fill:blue">pagina_final</text><path d="M660 1090 C680 1090 660 1140 680 1140" style="fill:transparent;stroke:black" /><rect x="746" y="1120" width="137" height="40" style="fill:green;stroke:black;stroke-width:1" /><text x="756" y="1130" font-size="8" style="fill:white">15</text><rect x="460" y="1220" width="200" height="40" style="fill:white;stroke:black;stroke-width:1" /><text x="470" y="1230" font-size="10" style="fill:blue">year</text><path d="M440 940 C460 940 440 1240 460 1240" style="fill:transparent;stroke:black" /><rect x="526" y="1220" width="137" height="40" style="fill:green;stroke:black;stroke-width:1" /><text x="536" y="1230" font-size="8" style="fill:white">2013</text><rect x="460" y="1270" width="200" height="40" style="fill:white;stroke:black;stroke-width:1" /><text x="470" y="1280" font-size="10" style="fill:blue">volumen</text><path d="M440 940 C460 940 440 1290 460 1290" style="fill:transparent;stroke:black" /><rect x="526" y="1270" width="137" height="40" style="fill:green;stroke:black;stroke-width:1" /><text x="536" y="1280" font-size="8" style="fill:white">1</text><rect x="460" y="1320" width="200" height="40" style="fill:white;stroke:black;stroke-width:1" /><text x="470" y="1330" font-size="10" style="fill:blue">revista</text><path d="M440 940 C460 940 440 1340 460 1340" style="fill:transparent;stroke:black" /><rect x="526" y="1320" width="137" height="40" style="fill:green;stroke:black;stroke-width:1" /><text x="536" y="1330" font-size="8" style="fill:white">VOGUE ESPAÑA</text><rect x="460" y="1370" width="200" height="40" style="fill:white;stroke:black;stroke-width:1" /><text x="470" y="1380" font-size="10" style="fill:blue">ee</text><path d="M440 940 C460 940 440 1390 460 1390" style="fill:transparent;stroke:black" /><rect x="526" y="1370" width="137" height="40" style="fill:green;stroke:black;stroke-width:1" /><text x="536" y="1380" font-size="8" style="fill:white">http://www.vogue.es/</text><rect x="460" y="1420" width="200" height="40" style="fill:white;stroke:black;stroke-width:1" /><text x="470" y="1430" font-size="10" style="fill:blue">keywords</text><path d="M440 940 C460 940 440 1440 460 1440" style="fill:transparent;stroke:black" /><rect x="680" y="1420" width="200" height="40" style="fill:white;stroke:black;stroke-width:1" /><text x="690" y="1430" font-size="10" style="fill:blue">keyword</text><path d="M660 1440 C680 1440 660 1440 680 1440" style="fill:transparent;stroke:black" /><rect x="746" y="1420" width="137" height="40" style="fill:green;stroke:black;stroke-width:1" /><text x="756" y="1430" font-size="8" style="fill:white">Vogue</text><rect x="680" y="1470" width="200" height="40" style="fill:white;stroke:black;stroke-width:1" /><text x="690" y="1480" font-size="10" style="fill:blue">keyword</text><path d="M660 1440 C680 1440 660 1490 680 1490" style="fill:transparent;stroke:black" /><rect x="746" y="1470" width="137" height="40" style="fill:green;stroke:black;stroke-width:1" /><text x="756" y="1480" font-size="8" style="fill:white">moda</text><rect x="680" y="1520" width="200" height="40" style="fill:white;stroke:black;stroke-width:1" /><text x="690" y="1530" font-size="10" style="fill:blue">keyword</text><path d="M660 1440 C680 1440 660 1540 680 1540" style="fill:transparent;stroke:black" /><rect x="746" y="1520" width="137" height="40" style="fill:green;stroke:black;stroke-width:1" /><text x="756" y="1530" font-size="8" style="fill:white">nueva</text><rect x="680" y="1570" width="200" height="40" style="fill:white;stroke:black;stroke-width:1" /><text x="690" y="1580" font-size="10" style="fill:blue">keyword</text><path d="M660 1440 C680 1440 660 1590 680 1590" style="fill:transparent;stroke:black" /><rect x="746" y="1570" width="137" height="40" style="fill:green;stroke:black;stroke-width:1" /><text x="756" y="1580" font-size="8" style="fill:white">España</text><rect x="680" y="1620" width="200" height="40" style="fill:white;stroke:black;stroke-width:1" /><text x="690" y="1630" font-size="10" style="fill:blue">keyword</text><path d="M660 1440 C680 1440 660 1640 680 1640" style="fill:transparent;stroke:black" /><rect x="746" y="1620" width="137" height="40" style="fill:green;stroke:black;stroke-width:1" /><text x="756" y="1630" font-size="8" style="fill:white">modelos</text><rect x="680" y="1670" width="200" height="40" style="fill:white;stroke:black;stroke-width:1" /><text x="690" y="1680" font-size="10" style="fill:blue">keyword</text><path d="M660 1440 C680 1440 660 1690 680 1690" style="fill:transparent;stroke:black" /><rect x="746" y="1670" width="137" height="40" style="fill:green;stroke:black;stroke-width:1" /><text x="756" y="1680" font-size="8" style="fill:white">tendencias</text><rect x="680" y="1720" width="200" height="40" style="fill:white;stroke:black;stroke-width:1" /><text x="690" y="1730" font-size="10" style="fill:blue">keyword</text><path d="M660 1440 C680 1440 660 1740 680 1740" style="fill:transparent;stroke:black" /><rect x="746" y="1720" width="137" height="40" style="fill:green;stroke:black;stroke-width:1" /><text x="756" y="1730" font-size="8" style="fill:white">pros</text><rect x="680" y="1770" width="200" height="40" style="fill:white;stroke:black;stroke-width:1" /><text x="690" y="1780" font-size="10" style="fill:blue">keyword</text><path d="M660 1440 C680 1440 660 1790 680 1790" style="fill:transparent;stroke:black" /><rect x="746" y="1770" width="137" height="40" style="fill:green;stroke:black;stroke-width:1" /><text x="756" y="1780" font-size="8" style="fill:white">contras</text><rect x="240" y="1920" width="200" height="40" style="fill:white;stroke:black;stroke-width:1" /><text x="250" y="1930" font-size="10" style="fill:blue">articulo</text><path d="M220 40 C240 40 220 1940 240 1940" style="fill:transparent;stroke:black" /><text x="250" y="1940" font-size="8" style="fill:black">mdate: 02/10/2017</text><rect x="460" y="1920" width="200" height="40" style="fill:white;stroke:black;stroke-width:1" /><text x="470" y="1930" font-size="10" style="fill:blue">autor</text><path d="M440 1940 C460 1940 440 1940 460 1940" style="fill:transparent;stroke:black" /><text x="470" y="1940" font-size="8" style="fill:black">nombre: Lucía</text><text x="470" y="1950" font-size="8" style="fill:black">apellido: Granda</text><text x="470" y="1960" font-size="8" style="fill:black">correo: UO251626@uniovi.es</text><rect x="460" y="1970" width="200" height="40" style="fill:white;stroke:black;stroke-width:1" /><text x="470" y="1980" font-size="10" style="fill:blue">titulo</text><path d="M440 1940 C460 1940 440 1990 460 1990" style="fill:transparent;stroke:black" /><rect x="526" y="1970" width="137" height="40" style="fill:green;stroke:black;stroke-width:1" /><text x="536" y="1980" font-size="8" style="fill:white">LOS VESTIDOS DE LAS CELEBRITIS</text><rect x="460" y="2020" width="200" height="40" style="fill:white;stroke:black;stroke-width:1" /><text x="470" y="2030" font-size="10" style="fill:blue">resumen</text><path d="M440 1940 C460 1940 440 2040 460 2040" style="fill:transparent;stroke:black" /><rect x="526" y="2020" width="137" height="40" style="fill:green;stroke:black;stroke-width:1" /><text x="536" y="2030" font-size="8" style="fill:white">Artículo que revisa los vestidos de las famosas </text><rect x="460" y="2070" width="200" height="40" style="fill:white;stroke:black;stroke-width:1" /><text x="470" y="2080" font-size="10" style="fill:blue">paginas</text><path d="M440 1940 C460 1940 440 2090 460 2090" style="fill:transparent;stroke:black" /><rect x="680" y="2070" width="200" height="40" style="fill:white;stroke:black;stroke-width:1" /><text x="690" y="2080" font-size="10" style="fill:blue">pagina_inicio</text><path d="M660 2090 C680 2090 660 2090 680 2090" style="fill:transparent;stroke:black" /><rect x="746" y="2070" width="137" height="40" style="fill:green;stroke:black;stroke-width:1" /><text x="756" y="2080" font-size="8" style="fill:white">16</text><rect x="680" y="2120" width="200" height="40" style="fill:white;stroke:black;stroke-width:1" /><text x="690" y="2130" font-size="10" style="fill:blue">pagina_final</text><path d="M660 2090 C680 2090 660 2140 680 2140" style="fill:transparent;stroke:black" /><rect x="746" y="2120" width="137" height="40" style="fill:green;stroke:black;stroke-width:1" /><text x="756" y="2130" font-size="8" style="fill:white">20</text><rect x="460" y="2220" width="200" height="40" style="fill:white;stroke:black;stroke-width:1" /><text x="470" y="2230" font-size="10" style="fill:blue">year</text><path d="M440 1940 C460 1940 440 2240 460 2240" style="fill:transparent;stroke:black" /><rect x="526" y="2220" width="137" height="40" style="fill:green;stroke:black;stroke-width:1" /><text x="536" y="2230" font-size="8" style="fill:white">2014</text><rect x="460" y="2270" width="200" height="40" style="fill:white;stroke:black;stroke-width:1" /><text x="470" y="2280" font-size="10" style="fill:blue">volumen</text><path d="M440 1940 C460 1940 440 2290 460 2290" style="fill:transparent;stroke:black" /><rect x="526" y="2270" width="137" height="40" style="fill:green;stroke:black;stroke-width:1" /><text x="536" y="2280" font-size="8" style="fill:white">150</text><rect x="460" y="2320" width="200" height="40" style="fill:white;stroke:black;stroke-width:1" /><text x="470" y="2330" font-size="10" style="fill:blue">revista</text><path d="M440 1940 C460 1940 440 2340 460 2340" style="fill:transparent;stroke:black" /><rect x="526" y="2320" width="137" height="40" style="fill:green;stroke:black;stroke-width:1" /><text x="536" y="2330" font-size="8" style="fill:white">CUORE ESPAÑA</text><rect x="460" y="2370" width="200" height="40" style="fill:white;stroke:black;stroke-width:1" /><text x="470" y="2380" font-size="10" style="fill:blue">ee</text><path d="M440 1940 C460 1940 440 2390 460 2390" style="fill:transparent;stroke:black" /><rect x="526" y="2370" width="137" height="40" style="fill:green;stroke:black;stroke-width:1" /><text x="536" y="2380" font-size="8" style="fill:white">http://www.revistacuore.com//</text><rect x="460" y="2420" width="200" height="40" style="fill:white;stroke:black;stroke-width:1" /><text x="470" y="2430" font-size="10" style="fill:blue">keywords</text><path d="M440 1940 C460 1940 440 2440 460 2440" style="fill:transparent;stroke:black" /><rect x="680" y="2420" width="200" height="40" style="fill:white;stroke:black;stroke-width:1" /><text x="690" y="2430" font-size="10" style="fill:blue">keyword</text><path d="M660 2440 C680 2440 660 2440 680 2440" style="fill:transparent;stroke:black" /><rect x="746" y="2420" width="137" height="40" style="fill:green;stroke:black;stroke-width:1" /><text x="756" y="2430" font-size="8" style="fill:white">famosas</text><rect x="680" y="2470" width="200" height="40" style="fill:white;stroke:black;stroke-width:1" /><text x="690" y="2480" font-size="10" style="fill:blue">keyword</text><path d="M660 2440 C680 2440 660 2490 680 2490" style="fill:transparent;stroke:black" /><rect x="746" y="2470" width="137" height="40" style="fill:green;stroke:black;stroke-width:1" /><text x="756" y="2480" font-size="8" style="fill:white">moda</text><rect x="680" y="2520" width="200" height="40" style="fill:white;stroke:black;stroke-width:1" /><text x="690" y="2530" font-size="10" style="fill:blue">keyword</text><path d="M660 2440 C680 2440 660 2540 680 2540" style="fill:transparent;stroke:black" /><rect x="746" y="2520" width="137" height="40" style="fill:green;stroke:black;stroke-width:1" /><text x="756" y="2530" font-size="8" style="fill:white">Cuore</text><rect x="680" y="2570" width="200" height="40" style="fill:white;stroke:black;stroke-width:1" /><text x="690" y="2580" font-size="10" style="fill:blue">keyword</text><path d="M660 2440 C680 2440 660 2590 680 2590" style="fill:transparent;stroke:black" /><rect x="746" y="2570" width="137" height="40" style="fill:green;stroke:black;stroke-width:1" /><text x="756" y="2580" font-size="8" style="fill:white">España</text><rect x="680" y="2620" width="200" height="40" style="fill:white;stroke:black;stroke-width:1" /><text x="690" y="2630" font-size="10" style="fill:blue">keyword</text><path d="M660 2440 C680 2440 660 2640 680 2640" style="fill:transparent;stroke:black" /><rect x="746" y="2620" width="137" height="40" style="fill:green;stroke:black;stroke-width:1" /><text x="756" y="2630" font-size="8" style="fill:white">modelos</text><rect x="680" y="2670" width="200" height="40" style="fill:white;stroke:black;stroke-width:1" /><text x="690" y="2680" font-size="10" style="fill:blue">keyword</text><path d="M660 2440 C680 2440 660 2690 680 2690" style="fill:transparent;stroke:black" /><rect x="746" y="2670" width="137" height="40" style="fill:green;stroke:black;stroke-width:1" /><text x="756" y="2680" font-size="8" style="fill:white">tendencias</text><rect x="680" y="2720" width="200" height="40" style="fill:white;stroke:black;stroke-width:1" /><text x="690" y="2730" font-size="10" style="fill:blue">keyword</text><path d="M660 2440 C680 2440 660 2740 680 2740" style="fill:transparent;stroke:black" /><rect x="746" y="2720" width="137" height="40" style="fill:green;stroke:black;stroke-width:1" /><text x="756" y="2730" font-size="8" style="fill:white">vestidos</text><rect x="680" y="2770" width="200" height="40" style="fill:white;stroke:black;stroke-width:1" /><text x="690" y="2780" font-size="10" style="fill:blue">keyword</text><path d="M660 2440 C680 2440 660 2790 680 2790" style="fill:transparent;stroke:black" /><rect x="746" y="2770" width="137" height="40" style="fill:green;stroke:black;stroke-width:1" /><text x="756" y="2780" font-size="8" style="fill:white">celebritis</text><rect x="240" y="2920" width="200" height="40" style="fill:white;stroke:black;stroke-width:1" /><text x="250" y="2930" font-size="10" style="fill:blue">articulo</text><path d="M220 40 C240 40 220 2940 240 2940" style="fill:transparent;stroke:black" /><text x="250" y="2940" font-size="8" style="fill:black">mdate: 02/10/2017</text><rect x="460" y="2920" width="200" height="40" style="fill:white;stroke:black;stroke-width:1" /><text x="470" y="2930" font-size="10" style="fill:blue">autor</text><path d="M440 2940 C460 2940 440 2940 460 2940" style="fill:transparent;stroke:black" /><text x="470" y="2940" font-size="8" style="fill:black">nombre: Pedro</text><text x="470" y="2950" font-size="8" style="fill:black">apellido: Garcia</text><text x="470" y="2960" font-size="8" style="fill:black">correo: UO254513@uniovi.es</text><rect x="460" y="2970" width="200" height="40" style="fill:white;stroke:black;stroke-width:1" /><text x="470" y="2980" font-size="10" style="fill:blue">titulo</text><path d="M440 2940 C460 2940 440 2990 460 2990" style="fill:transparent;stroke:black" /><rect x="526" y="2970" width="137" height="40" style="fill:green;stroke:black;stroke-width:1" /><text x="536" y="2980" font-size="8" style="fill:white">LAS INFLUENCERS MÁS DE MODA</text><rect x="460" y="3020" width="200" height="40" style="fill:white;stroke:black;stroke-width:1" /><text x="470" y="3030" font-size="10" style="fill:blue">resumen</text><path d="M440 2940 C460 2940 440 3040 460 3040" style="fill:transparent;stroke:black" /><rect x="526" y="3020" width="137" height="40" style="fill:green;stroke:black;stroke-width:1" /><text x="536" y="3030" font-size="8" style="fill:white">Artículo que describe a las youtubers, instagramers, bloggers que están en la cima de los influencers actualmente. </text><rect x="460" y="3070" width="200" height="40" style="fill:white;stroke:black;stroke-width:1" /><text x="470" y="3080" font-size="10" style="fill:blue">paginas</text><path d="M440 2940 C460 2940 440 3090 460 3090" style="fill:transparent;stroke:black" /><rect x="680" y="3070" width="200" height="40" style="fill:white;stroke:black;stroke-width:1" /><text x="690" y="3080" font-size="10" style="fill:blue">pagina_inicio</text><path d="M660 3090 C680 3090 660 3090 680 3090" style="fill:transparent;stroke:black" /><rect x="746" y="3070" width="137" height="40" style="fill:green;stroke:black;stroke-width:1" /><text x="756" y="3080" font-size="8" style="fill:white">21</text><rect x="680" y="3120" width="200" height="40" style="fill:white;stroke:black;stroke-width:1" /><text x="690" y="3130" font-size="10" style="fill:blue">pagina_final</text><path d="M660 3090 C680 3090 660 3140 680 3140" style="fill:transparent;stroke:black" /><rect x="746" y="3120" width="137" height="40" style="fill:green;stroke:black;stroke-width:1" /><text x="756" y="3130" font-size="8" style="fill:white">31</text><rect x="460" y="3220" width="200" height="40" style="fill:white;stroke:black;stroke-width:1" /><text x="470" y="3230" font-size="10" style="fill:blue">year</text><path d="M440 2940 C460 2940 440 3240 460 3240" style="fill:transparent;stroke:black" /><rect x="526" y="3220" width="137" height="40" style="fill:green;stroke:black;stroke-width:1" /><text x="536" y="3230" font-size="8" style="fill:white">2013</text><rect x="460" y="3270" width="200" height="40" style="fill:white;stroke:black;stroke-width:1" /><text x="470" y="3280" font-size="10" style="fill:blue">volumen</text><path d="M440 2940 C460 2940 440 3290 460 3290" style="fill:transparent;stroke:black" /><rect x="526" y="3270" width="137" height="40" style="fill:green;stroke:black;stroke-width:1" /><text x="536" y="3280" font-size="8" style="fill:white">10</text><rect x="460" y="3320" width="200" height="40" style="fill:white;stroke:black;stroke-width:1" /><text x="470" y="3330" font-size="10" style="fill:blue">revista</text><path d="M440 2940 C460 2940 440 3340 460 3340" style="fill:transparent;stroke:black" /><rect x="526" y="3320" width="137" height="40" style="fill:green;stroke:black;stroke-width:1" /><text x="536" y="3330" font-size="8" style="fill:white">EL CONFIDENCIAL</text><rect x="460" y="3370" width="200" height="40" style="fill:white;stroke:black;stroke-width:1" /><text x="470" y="3380" font-size="10" style="fill:blue">ee</text><path d="M440 2940 C460 2940 440 3390 460 3390" style="fill:transparent;stroke:black" /><rect x="526" y="3370" width="137" height="40" style="fill:green;stroke:black;stroke-width:1" /><text x="536" y="3380" font-size="8" style="fill:white">https://www.elconfidencial.com</text><rect x="460" y="3420" width="200" height="40" style="fill:white;stroke:black;stroke-width:1" /><text x="470" y="3430" font-size="10" style="fill:blue">keywords</text><path d="M440 2940 C460 2940 440 3440 460 3440" style="fill:transparent;stroke:black" /><rect x="680" y="3420" width="200" height="40" style="fill:white;stroke:black;stroke-width:1" /><text x="690" y="3430" font-size="10" style="fill:blue">keyword</text><path d="M660 3440 C680 3440 660 3440 680 3440" style="fill:transparent;stroke:black" /><rect x="746" y="3420" width="137" height="40" style="fill:green;stroke:black;stroke-width:1" /><text x="756" y="3430" font-size="8" style="fill:white">famosas</text><rect x="680" y="3470" width="200" height="40" style="fill:white;stroke:black;stroke-width:1" /><text x="690" y="3480" font-size="10" style="fill:blue">keyword</text><path d="M660 3440 C680 3440 660 3490 680 3490" style="fill:transparent;stroke:black" /><rect x="746" y="3470" width="137" height="40" style="fill:green;stroke:black;stroke-width:1" /><text x="756" y="3480" font-size="8" style="fill:white">moda</text><rect x="680" y="3520" width="200" height="40" style="fill:white;stroke:black;stroke-width:1" /><text x="690" y="3530" font-size="10" style="fill:blue">keyword</text><path d="M660 3440 C680 3440 660 3540 680 3540" style="fill:transparent;stroke:black" /><rect x="746" y="3520" width="137" height="40" style="fill:green;stroke:black;stroke-width:1" /><text x="756" y="3530" font-size="8" style="fill:white">Confidencial</text><rect x="680" y="3570" width="200" height="40" style="fill:white;stroke:black;stroke-width:1" /><text x="690" y="3580" font-size="10" style="fill:blue">keyword</text><path d="M660 3440 C680 3440 660 3590 680 3590" style="fill:transparent;stroke:black" /><rect x="746" y="3570" width="137" height="40" style="fill:green;stroke:black;stroke-width:1" /><text x="756" y="3580" font-size="8" style="fill:white">España</text><rect x="680" y="3620" width="200" height="40" style="fill:white;stroke:black;stroke-width:1" /><text x="690" y="3630" font-size="10" style="fill:blue">keyword</text><path d="M660 3440 C680 3440 660 3640 680 3640" style="fill:transparent;stroke:black" /><rect x="746" y="3620" width="137" height="40" style="fill:green;stroke:black;stroke-width:1" /><text x="756" y="3630" font-size="8" style="fill:white">youtubers</text><rect x="680" y="3670" width="200" height="40" style="fill:white;stroke:black;stroke-width:1" /><text x="690" y="3680" font-size="10" style="fill:blue">keyword</text><path d="M660 3440 C680 3440 660 3690 680 3690" style="fill:transparent;stroke:black" /><rect x="746" y="3670" width="137" height="40" style="fill:green;stroke:black;stroke-width:1" /><text x="756" y="3680" font-size="8" style="fill:white">instagramers</text><rect x="680" y="3720" width="200" height="40" style="fill:white;stroke:black;stroke-width:1" /><text x="690" y="3730" font-size="10" style="fill:blue">keyword</text><path d="M660 3440 C680 3440 660 3740 680 3740" style="fill:transparent;stroke:black" /><rect x="746" y="3720" width="137" height="40" style="fill:green;stroke:black;stroke-width:1" /><text x="756" y="3730" font-size="8" style="fill:white">tendencias</text><rect x="680" y="3770" width="200" height="40" style="fill:white;stroke:black;stroke-width:1" /><text x="690" y="3780" font-size="10" style="fill:blue">keyword</text><path d="M660 3440 C680 3440 660 3790 680 3790" style="fill:transparent;stroke:black" /><rect x="746" y="3770" width="137" height="40" style="fill:green;stroke:black;stroke-width:1" /><text x="756" y="3780" font-size="8" style="fill:white">bloggers</text></svg>